<svg width="159" height="47" viewBox="0 0 159 47" fill="none" xmlns="http://www.w3.org/2000/svg">
<path d="M23.9266 24.64C26.1222 22.497 26.1222 19.0225 23.9266 16.8795C21.731 14.7365 18.1712 14.7365 15.9755 16.8795C13.7799 19.0225 13.7799 22.497 15.9755 24.64C18.1712 26.783 21.731 26.783 23.9266 24.64Z" fill="#4CAD51"/>
<path d="M5.91479 34.549L16.0313 44.423C18.3324 46.669 22.0636 46.669 24.3648 44.423L34.4812 34.549C42.37 26.8493 42.37 14.369 34.4812 6.66929C26.5925 -1.03039 13.8056 -1.03039 5.91683 6.66929C-1.97194 14.369 -1.97194 26.8513 5.91479 34.549ZM29.6382 11.3962C34.8525 16.4855 34.8525 24.7347 29.6382 29.8241C24.4239 34.9134 15.9721 34.9134 10.7578 29.8241C5.54351 24.7347 5.54351 16.4855 10.7578 11.3962C15.9721 6.3069 24.4239 6.3069 29.6382 11.3962Z" fill="#4CAD51"/>
<path d="M101.103 11.8379C96.4252 11.8379 92.6328 15.5394 92.6328 20.105C92.6328 24.6707 96.4252 28.3722 101.103 28.3722C105.781 28.3722 109.573 24.6707 109.573 20.105C109.573 15.5394 105.781 11.8379 101.103 11.8379ZM101.103 23.6413C99.1017 23.6413 97.4799 22.0583 97.4799 20.105C97.4799 18.1517 99.1017 16.5688 101.103 16.5688C103.104 16.5688 104.726 18.1517 104.726 20.105C104.726 22.0583 103.104 23.6413 101.103 23.6413Z" fill="#4CAD51"/>
<path d="M115.015 37.1345C116.241 37.1345 117.089 37.6582 117.563 38.7055C118.036 39.7528 117.889 40.7623 117.122 41.736C115.282 43.7311 113.007 44.7287 110.3 44.7287C107.746 44.7287 105.573 43.8566 103.784 42.1103C101.995 40.3661 101.102 38.2456 101.102 35.7507C101.102 33.2817 101.995 31.1751 103.784 29.4289C105.571 27.6847 107.744 26.8105 110.3 26.8105C113.007 26.8105 115.282 27.8081 117.122 29.8032C117.889 30.751 118.036 31.7545 117.563 32.8138C117.089 33.8731 116.241 34.4027 115.015 34.4027C114.709 33.3813 114.119 32.545 113.252 31.8959C112.383 31.2468 111.4 30.9242 110.3 30.9242C108.921 30.9242 107.752 31.3981 106.793 32.3459C105.834 33.2936 105.357 34.4286 105.357 35.7507C105.357 37.0967 105.836 38.2376 106.793 39.1734C107.752 40.1093 108.921 40.5752 110.3 40.5752C111.398 40.5752 112.383 40.2566 113.252 39.6214C114.119 38.9863 114.706 38.156 115.015 37.1345Z" fill="#4CAD51"/>
<path d="M138.085 35.0777C138.109 35.3026 138.124 35.5257 138.124 35.7507V44.7286H135.327C134.535 44.7286 134.062 44.2547 133.909 43.307C132.428 44.2547 130.78 44.7286 128.966 44.7286C126.412 44.7286 124.239 43.8565 122.45 42.1103C120.739 40.4139 119.845 38.2953 119.768 35.7507C119.845 33.2319 120.745 31.1312 122.469 29.4487C124.192 27.7662 126.345 26.8862 128.925 26.8125C131.53 26.8623 133.703 27.7364 135.441 29.4308C136.998 30.95 137.881 32.8317 138.085 35.0777ZM129.039 40.5751C130.394 40.5254 131.524 40.0575 132.432 39.1734C133.338 38.2893 133.831 37.1843 133.907 35.8622C133.88 34.4664 133.395 33.2936 132.45 32.3458C131.479 31.3981 130.317 30.9242 128.962 30.9242C127.583 30.9242 126.408 31.3981 125.437 32.3458C124.492 33.2936 124.019 34.4285 124.019 35.7507C124.019 37.0967 124.492 38.2455 125.437 39.1913C126.408 40.1152 127.609 40.5751 129.039 40.5751Z" fill="#4CAD51"/>
<path d="M158.396 35.5254C158.396 35.6011 158.396 35.6747 158.396 35.7504C158.396 38.2453 157.5 40.3638 155.713 42.1101C153.924 43.8563 151.766 44.7284 149.236 44.7284C149.158 44.7284 149.083 44.7284 149.005 44.7284C148.954 44.7284 148.916 44.7284 148.891 44.7284C148.687 44.7284 148.483 44.7164 148.277 44.6906C148.251 44.6906 148.214 44.6786 148.163 44.6527C148.136 44.6527 148.1 44.6527 148.049 44.6527C148.022 44.6527 147.985 44.6527 147.934 44.6527C147.908 44.6527 147.871 44.6408 147.82 44.6149C147.743 44.6149 147.667 44.6029 147.59 44.5771C147.563 44.5771 147.526 44.5771 147.475 44.5771C147.449 44.5532 147.412 44.5392 147.361 44.5392C147.259 44.5153 147.143 44.4894 147.016 44.4636C146.965 44.4397 146.902 44.4257 146.825 44.4257C146.672 44.376 146.531 44.3381 146.402 44.3142C146.376 44.2903 146.351 44.2764 146.325 44.2764C146.274 44.2525 146.223 44.2266 146.172 44.2007C146.145 44.2007 146.109 44.2007 146.058 44.2007C146.031 44.1768 145.994 44.151 145.943 44.1251C145.917 44.1251 145.892 44.1251 145.866 44.1251C145.737 44.0753 145.623 44.0255 145.521 43.9757C145.47 43.9518 145.431 43.926 145.407 43.9001C145.023 43.7249 144.64 43.5257 144.256 43.3007C144.23 43.2769 144.205 43.2629 144.179 43.2629C144.152 43.239 144.128 43.2131 144.101 43.1873C144.05 43.1634 144.012 43.1375 143.987 43.1116C143.961 43.1116 143.936 43.0996 143.91 43.0738C143.859 43.024 143.795 42.9742 143.718 42.9244C143.691 42.9244 143.667 42.9125 143.64 42.8866C143.614 42.8627 143.589 42.8368 143.563 42.8109C143.485 42.7612 143.41 42.7114 143.332 42.6616C143.306 42.6377 143.293 42.6118 143.293 42.5859C143.089 42.4366 142.898 42.2753 142.718 42.1001C142.692 42.0762 142.679 42.0503 142.679 42.0244C142.526 41.8751 142.373 41.7258 142.22 41.5764C142.22 41.5525 142.208 41.5267 142.182 41.5008C142.155 41.4769 142.131 41.451 142.104 41.4251C142.078 41.4012 142.053 41.3753 142.027 41.3494C141.925 41.226 141.823 41.0886 141.721 40.9373C141.694 40.8875 141.657 40.8258 141.606 40.7501C141.555 40.7003 141.517 40.6506 141.492 40.6008C141.466 40.551 141.441 40.5132 141.415 40.4893C141.364 40.3897 141.313 40.3021 141.262 40.2284C141.235 40.1787 141.211 40.1408 141.184 40.1169C141.056 39.8681 140.929 39.6052 140.801 39.3304C140.774 39.3066 140.762 39.2807 140.762 39.2548C140.735 39.205 140.723 39.1672 140.723 39.1433C140.696 39.1194 140.684 39.0816 140.684 39.0318C140.658 38.982 140.633 38.9203 140.607 38.8446H140.568C140.541 38.7451 140.517 38.6455 140.49 38.5459C140.439 38.3966 140.388 38.2473 140.337 38.0979C140.337 38.0223 140.325 37.9486 140.299 37.8729C140.272 37.7734 140.248 37.6619 140.221 37.5364C140.195 37.4867 140.182 37.4249 140.182 37.3493C140.156 37.2995 140.144 37.2617 140.144 37.2378C140.144 37.188 140.144 37.1502 140.144 37.1263C140.144 37.0765 140.131 37.0387 140.105 37.0148C140.105 36.9152 140.093 36.8037 140.066 36.6783C140.066 36.6026 140.066 36.5289 140.066 36.4533C140.04 36.2283 140.027 35.9913 140.027 35.7424V18.5352H142.135C142.722 18.5352 143.226 18.7343 143.648 19.1345C144.071 19.5327 144.281 20.0205 144.281 20.594V28.224C145.737 27.2762 147.386 26.8023 149.224 26.8023C151.753 26.8023 153.912 27.6764 155.701 29.4206C157.374 31.0494 158.269 33.0823 158.396 35.5254ZM158.396 35.5254C158.267 33.0564 157.329 30.9876 155.578 29.3151C153.828 27.6445 151.715 26.8083 149.236 26.8083C147.396 26.8083 145.748 27.2702 144.293 28.1921V28.2299C145.75 27.2822 147.398 26.8083 149.236 26.8083C151.766 26.8083 153.924 27.6824 155.713 29.4266C157.374 31.0494 158.269 33.0823 158.396 35.5254ZM149.122 40.5749C150.552 40.5749 151.747 40.107 152.704 39.1732C153.663 38.2373 154.154 37.0725 154.179 35.6767C154.101 34.3546 153.61 33.2515 152.704 32.3655C151.796 31.4814 150.666 30.9996 149.311 30.9259C147.879 30.9518 146.68 31.4257 145.709 32.3476C144.764 33.2954 144.291 34.4681 144.291 35.8639C144.342 37.186 144.821 38.2891 145.727 39.1751C146.637 40.0572 147.767 40.5251 149.122 40.5749Z" fill="#4CAD51"/>
<path d="M57.7215 37.1345C58.9476 37.1345 59.7963 37.6582 60.2695 38.7055C60.7428 39.7528 60.5959 40.7623 59.8289 41.736C57.9888 43.7311 55.7142 44.7287 53.0071 44.7287C50.4529 44.7287 48.2803 43.8566 46.4912 42.1103C44.7021 40.3661 43.8086 38.2456 43.8086 35.7507C43.8086 33.2817 44.7021 31.1751 46.4912 29.4289C48.2783 27.6847 50.4509 26.8105 53.0071 26.8105C55.7142 26.8105 57.9888 27.8081 59.8289 29.8032C60.5959 30.751 60.7428 31.7545 60.2695 32.8138C59.7963 33.8731 58.9476 34.4027 57.7215 34.4027C57.4155 33.3813 56.826 32.545 55.959 31.8959C55.0899 31.2468 54.1066 30.9242 53.0071 30.9242C51.628 30.9242 50.4591 31.3981 49.5003 32.3459C48.5414 33.2936 48.0641 34.4286 48.0641 35.7507C48.0641 37.0967 48.5435 38.2376 49.5003 39.1734C50.4591 40.1093 51.628 40.5752 53.0071 40.5752C54.1046 40.5752 55.0899 40.2566 55.959 39.6214C56.826 38.9863 57.4135 38.158 57.7215 37.1345Z" fill="#F1FFF1"/>
<path d="M80.792 35.0777C80.8164 35.3026 80.8307 35.5257 80.8307 35.7507V44.7286H78.0339C77.2423 44.7286 76.769 44.2547 76.616 43.307C75.135 44.2547 73.4867 44.7286 71.6731 44.7286C69.119 44.7286 66.9463 43.8565 65.1572 42.1103C63.4457 40.4139 62.5521 38.2953 62.4746 35.7507C62.5521 33.2319 63.4518 31.1312 65.1756 29.4487C66.8994 27.7662 69.0516 26.8862 71.6323 26.8125C74.2374 26.8623 76.41 27.7364 78.1481 29.4308C79.7067 30.95 80.588 32.8317 80.792 35.0777ZM71.7465 40.5751C73.1011 40.5254 74.2313 40.0575 75.1391 39.1734C76.0448 38.2893 76.5385 37.1843 76.614 35.8622C76.5875 34.4664 76.102 33.2936 75.1574 32.3458C74.1864 31.3981 73.0236 30.9242 71.669 30.9242C70.2899 30.9242 69.1149 31.3981 68.1438 32.3458C67.1993 33.2936 66.726 34.4285 66.726 35.7507C66.726 37.0967 67.1993 38.2455 68.1438 39.1913C69.1149 40.1152 70.3165 40.5751 71.7465 40.5751Z" fill="#F1FFF1"/>
<path d="M101.105 35.5254C101.105 35.6011 101.105 35.6747 101.105 35.7504C101.105 38.2453 100.209 40.3638 98.4221 42.1101C96.633 43.8563 94.4746 44.7284 91.945 44.7284C91.8675 44.7284 91.792 44.7284 91.7145 44.7284C91.6635 44.7284 91.6247 44.7284 91.6002 44.7284C91.3962 44.7284 91.1922 44.7164 90.9862 44.6906C90.9597 44.6906 90.9229 44.6786 90.8719 44.6527C90.8454 44.6527 90.8087 44.6527 90.7577 44.6527C90.7312 44.6527 90.6945 44.6527 90.6435 44.6527C90.6169 44.6527 90.5802 44.6408 90.5292 44.6149C90.4517 44.6149 90.3762 44.6029 90.2987 44.5771C90.2722 44.5771 90.2355 44.5771 90.1845 44.5771C90.1579 44.5532 90.1212 44.5392 90.0702 44.5392C89.9682 44.5153 89.8519 44.4894 89.7254 44.4636C89.6744 44.4397 89.6112 44.4257 89.5337 44.4257C89.3807 44.376 89.2399 44.3381 89.1114 44.3142C89.0849 44.2903 89.0604 44.2764 89.0339 44.2764C88.9829 44.2525 88.9319 44.2266 88.8809 44.2007C88.8544 44.2007 88.8176 44.2007 88.7666 44.2007C88.7401 44.1768 88.7034 44.151 88.6524 44.1251C88.6259 44.1251 88.6014 44.1251 88.5749 44.1251C88.4464 44.0753 88.3321 44.0255 88.2301 43.9757C88.1791 43.9518 88.1403 43.926 88.1159 43.9001C87.7323 43.7249 87.3488 43.5257 86.9653 43.3007C86.9388 43.2769 86.9143 43.2629 86.8878 43.2629C86.8612 43.239 86.8368 43.2131 86.8102 43.1873C86.7592 43.1634 86.7205 43.1375 86.696 43.1116C86.6695 43.1116 86.645 43.0996 86.6185 43.0738C86.5675 43.024 86.5042 42.9742 86.4267 42.9244C86.4002 42.9244 86.3757 42.9125 86.3492 42.8866C86.3227 42.8627 86.2982 42.8368 86.2717 42.8109C86.1942 42.7612 86.1187 42.7114 86.0412 42.6616C86.0146 42.6377 86.0024 42.6118 86.0024 42.5859C85.7984 42.4366 85.6066 42.2753 85.4271 42.1001C85.4006 42.0762 85.3884 42.0503 85.3884 42.0244C85.2354 41.8751 85.0824 41.7258 84.9294 41.5764C84.9294 41.5525 84.9171 41.5267 84.8906 41.5008C84.8641 41.4769 84.8396 41.451 84.8131 41.4251C84.7865 41.4012 84.7621 41.3753 84.7355 41.3494C84.6335 41.226 84.5315 41.0886 84.4295 40.9373C84.403 40.8875 84.3663 40.8258 84.3153 40.7501C84.2643 40.7003 84.2255 40.6506 84.2011 40.6008C84.1745 40.551 84.1501 40.5132 84.1235 40.4893C84.0725 40.3897 84.0215 40.3021 83.9705 40.2284C83.944 40.1787 83.9195 40.1408 83.893 40.1169C83.7645 39.8681 83.638 39.6052 83.5095 39.3304C83.483 39.3066 83.4707 39.2807 83.4707 39.2548C83.4442 39.205 83.432 39.1672 83.432 39.1433C83.4055 39.1194 83.3932 39.0816 83.3932 39.0318C83.3667 38.982 83.3422 38.9203 83.3157 38.8446H83.2769C83.2504 38.7451 83.2259 38.6455 83.1994 38.5459C83.1484 38.3966 83.0974 38.2473 83.0464 38.0979C83.0464 38.0223 83.0342 37.9486 83.0076 37.8729C82.9811 37.7734 82.9567 37.6619 82.9301 37.5364C82.9036 37.4867 82.8914 37.4249 82.8914 37.3493C82.8649 37.2995 82.8526 37.2617 82.8526 37.2378C82.8526 37.188 82.8526 37.1502 82.8526 37.1263C82.8526 37.0765 82.8404 37.0387 82.8138 37.0148C82.8138 36.9152 82.8016 36.8037 82.7751 36.6783C82.7751 36.6026 82.7751 36.5289 82.7751 36.4533C82.7486 36.2283 82.7363 35.9913 82.7363 35.7424V18.5352H84.8437C85.4312 18.5352 85.9351 18.7343 86.3574 19.1345C86.7797 19.5327 86.9898 20.0205 86.9898 20.594V28.224C88.4463 27.2762 90.0947 26.8023 91.9327 26.8023C94.4624 26.8023 96.6207 27.6764 98.4098 29.4206C100.081 31.0494 100.976 33.0823 101.105 35.5254ZM101.105 35.5254C100.976 33.0564 100.038 30.9876 98.2874 29.3151C96.5371 27.6445 94.4236 26.8083 91.945 26.8083C90.1049 26.8083 88.4565 27.2702 87.002 28.1921V28.2299C88.4586 27.2822 90.1069 26.8083 91.945 26.8083C94.4746 26.8083 96.633 27.6824 98.4221 29.4266C100.081 31.0494 100.976 33.0823 101.105 35.5254ZM91.8287 40.5749C93.2588 40.5749 94.4542 40.107 95.411 39.1732C96.3698 38.2373 96.8614 37.0725 96.8859 35.6767C96.8084 34.3546 96.3168 33.2515 95.411 32.3655C94.5032 31.4814 93.373 30.9996 92.0184 30.9259C90.5863 30.9518 89.3868 31.4257 88.4157 32.3476C87.4712 33.2954 86.9979 34.4681 86.9979 35.8639C87.0489 37.186 87.5283 38.2891 88.4341 39.1751C89.344 40.0572 90.4741 40.5251 91.8287 40.5749Z" fill="#F1FFF1"/>
<path d="M20.2005 29.7676C25.3832 29.7676 29.5846 25.6669 29.5846 20.6084C29.5846 15.5499 25.3832 11.4492 20.2005 11.4492C15.0178 11.4492 10.8164 15.5499 10.8164 20.6084C10.8164 25.6669 15.0178 29.7676 20.2005 29.7676Z" stroke="#F1FFF1" stroke-width="0.75" stroke-miterlimit="10" stroke-dasharray="2.5 2.5"/>
</svg>
