<svg width="159" height="46" viewBox="0 0 159 46" fill="none" xmlns="http://www.w3.org/2000/svg">
<path d="M24.1727 23.5941C26.3683 21.4511 26.3683 17.9766 24.1727 15.8336C21.9771 13.6906 18.4172 13.6906 16.2216 15.8336C14.026 17.9766 14.026 21.4511 16.2216 23.5941C18.4172 25.7371 21.9771 25.7371 24.1727 23.5941Z" fill="#F1FFF1"/>
<path d="M5.91479 33.6545L16.0313 43.5284C18.3324 45.7744 22.0636 45.7744 24.3648 43.5284L34.4812 33.6545C42.37 25.9548 42.37 13.4744 34.4812 5.77476C26.5925 -1.92492 13.8056 -1.92492 5.91683 5.77476C-1.97194 13.4744 -1.97194 25.9568 5.91479 33.6545ZM29.6382 10.5017C34.8525 15.591 34.8525 23.8402 29.6382 28.9295C24.4239 34.0188 15.9721 34.0188 10.7578 28.9295C5.54351 23.8402 5.54351 15.591 10.7578 10.5017C15.9721 5.41237 24.4239 5.41237 29.6382 10.5017Z" fill="#F1FFF1"/>
<path d="M101.103 10.9434C96.4252 10.9434 92.6328 14.6449 92.6328 19.2105C92.6328 23.7762 96.4252 27.4776 101.103 27.4776C105.781 27.4776 109.573 23.7762 109.573 19.2105C109.573 14.6449 105.781 10.9434 101.103 10.9434ZM101.103 22.7467C99.1017 22.7467 97.4799 21.1638 97.4799 19.2105C97.4799 17.2572 99.1017 15.6743 101.103 15.6743C103.104 15.6743 104.726 17.2572 104.726 19.2105C104.726 21.1638 103.104 22.7467 101.103 22.7467Z" fill="#F1FFF1"/>
<path d="M115.015 36.239C116.241 36.239 117.089 36.7627 117.563 37.81C118.036 38.8573 117.889 39.8668 117.122 40.8405C115.282 42.8356 113.007 43.8332 110.3 43.8332C107.746 43.8332 105.573 42.961 103.784 41.2148C101.995 39.4706 101.102 37.3501 101.102 34.8552C101.102 32.3862 101.995 30.2796 103.784 28.5334C105.571 26.7891 107.744 25.915 110.3 25.915C113.007 25.915 115.282 26.9126 117.122 28.9077C117.889 29.8555 118.036 30.859 117.563 31.9183C117.089 32.9776 116.241 33.5072 115.015 33.5072C114.709 32.4857 114.119 31.6495 113.252 31.0004C112.383 30.3513 111.4 30.0287 110.3 30.0287C108.921 30.0287 107.752 30.5026 106.793 31.4504C105.834 32.3981 105.357 33.5331 105.357 34.8552C105.357 36.2012 105.836 37.3421 106.793 38.2779C107.752 39.2138 108.921 39.6797 110.3 39.6797C111.398 39.6797 112.383 39.3611 113.252 38.7259C114.119 38.0908 114.706 37.2605 115.015 36.239Z" fill="#F1FFF1"/>
<path d="M138.085 34.1821C138.109 34.4071 138.124 34.6301 138.124 34.8551V43.8331H135.327C134.535 43.8331 134.062 43.3592 133.909 42.4115C132.428 43.3592 130.78 43.8331 128.966 43.8331C126.412 43.8331 124.239 42.961 122.45 41.2148C120.739 39.5184 119.845 37.3998 119.768 34.8551C119.845 32.3364 120.745 30.2357 122.469 28.5532C124.192 26.8707 126.345 25.9907 128.925 25.917C131.53 25.9668 133.703 26.8409 135.441 28.5353C136.998 30.0545 137.881 31.9362 138.085 34.1821ZM129.039 39.6796C130.394 39.6299 131.524 39.1619 132.432 38.2779C133.338 37.3938 133.831 36.2888 133.907 34.9666C133.88 33.5709 133.395 32.3981 132.45 31.4503C131.479 30.5025 130.317 30.0287 128.962 30.0287C127.583 30.0287 126.408 30.5025 125.437 31.4503C124.492 32.3981 124.019 33.533 124.019 34.8551C124.019 36.2011 124.492 37.35 125.437 38.2958C126.408 39.2197 127.609 39.6796 129.039 39.6796Z" fill="#F1FFF1"/>
<path d="M158.396 34.6299C158.396 34.7056 158.396 34.7792 158.396 34.8549C158.396 37.3498 157.5 39.4683 155.713 41.2146C153.924 42.9608 151.766 43.8329 149.236 43.8329C149.158 43.8329 149.083 43.8329 149.005 43.8329C148.954 43.8329 148.916 43.8329 148.891 43.8329C148.687 43.8329 148.483 43.8209 148.277 43.795C148.251 43.795 148.214 43.7831 148.163 43.7572C148.136 43.7572 148.1 43.7572 148.049 43.7572C148.022 43.7572 147.985 43.7572 147.934 43.7572C147.908 43.7572 147.871 43.7453 147.82 43.7194C147.743 43.7194 147.667 43.7074 147.59 43.6815C147.563 43.6815 147.526 43.6815 147.475 43.6815C147.449 43.6577 147.412 43.6437 147.361 43.6437C147.259 43.6198 147.143 43.5939 147.016 43.5681C146.965 43.5442 146.902 43.5302 146.825 43.5302C146.672 43.4804 146.531 43.4426 146.402 43.4187C146.376 43.3948 146.351 43.3809 146.325 43.3809C146.274 43.357 146.223 43.3311 146.172 43.3052C146.145 43.3052 146.109 43.3052 146.058 43.3052C146.031 43.2813 145.994 43.2554 145.943 43.2296C145.917 43.2296 145.892 43.2296 145.866 43.2296C145.737 43.1798 145.623 43.13 145.521 43.0802C145.47 43.0563 145.431 43.0305 145.407 43.0046C145.023 42.8293 144.64 42.6302 144.256 42.4052C144.23 42.3813 144.205 42.3674 144.179 42.3674C144.152 42.3435 144.128 42.3176 144.101 42.2917C144.05 42.2679 144.012 42.242 143.987 42.2161C143.961 42.2161 143.936 42.2041 143.91 42.1783C143.859 42.1285 143.795 42.0787 143.718 42.0289C143.691 42.0289 143.667 42.017 143.64 41.9911C143.614 41.9672 143.589 41.9413 143.563 41.9154C143.485 41.8656 143.41 41.8159 143.332 41.7661C143.306 41.7422 143.293 41.7163 143.293 41.6904C143.089 41.5411 142.898 41.3798 142.718 41.2046C142.692 41.1807 142.679 41.1548 142.679 41.1289C142.526 40.9796 142.373 40.8303 142.22 40.6809C142.22 40.657 142.208 40.6312 142.182 40.6053C142.155 40.5814 142.131 40.5555 142.104 40.5296C142.078 40.5057 142.053 40.4798 142.027 40.4539C141.925 40.3305 141.823 40.1931 141.721 40.0418C141.694 39.992 141.657 39.9303 141.606 39.8546C141.555 39.8048 141.517 39.7551 141.492 39.7053C141.466 39.6555 141.441 39.6177 141.415 39.5938C141.364 39.4942 141.313 39.4066 141.262 39.3329C141.235 39.2832 141.211 39.2453 141.184 39.2214C141.056 38.9725 140.929 38.7097 140.801 38.4349C140.774 38.411 140.762 38.3852 140.762 38.3593C140.735 38.3095 140.723 38.2717 140.723 38.2478C140.696 38.2239 140.684 38.186 140.684 38.1363C140.658 38.0865 140.633 38.0248 140.607 37.9491H140.568C140.541 37.8496 140.517 37.75 140.49 37.6504C140.439 37.5011 140.388 37.3518 140.337 37.2024C140.337 37.1268 140.325 37.0531 140.299 36.9774C140.272 36.8779 140.248 36.7664 140.221 36.6409C140.195 36.5912 140.182 36.5294 140.182 36.4538C140.156 36.404 140.144 36.3662 140.144 36.3423C140.144 36.2925 140.144 36.2547 140.144 36.2308C140.144 36.181 140.131 36.1432 140.105 36.1193C140.105 36.0197 140.093 35.9082 140.066 35.7828C140.066 35.7071 140.066 35.6334 140.066 35.5578C140.04 35.3328 140.027 35.0958 140.027 34.8469V17.6396H142.135C142.722 17.6396 143.226 17.8388 143.648 18.239C144.071 18.6372 144.281 19.125 144.281 19.6985V27.3285C145.737 26.3807 147.386 25.9068 149.224 25.9068C151.753 25.9068 153.912 26.7809 155.701 28.5251C157.374 30.1539 158.269 32.1868 158.396 34.6299ZM158.396 34.6299C158.267 32.1609 157.329 30.0921 155.578 28.4196C153.828 26.749 151.715 25.9128 149.236 25.9128C147.396 25.9128 145.748 26.3747 144.293 27.2966V27.3344C145.75 26.3867 147.398 25.9128 149.236 25.9128C151.766 25.9128 153.924 26.7869 155.713 28.5311C157.374 30.1539 158.269 32.1868 158.396 34.6299ZM149.122 39.6794C150.552 39.6794 151.747 39.2115 152.704 38.2776C153.663 37.3418 154.154 36.177 154.179 34.7812C154.101 33.4591 153.61 32.356 152.704 31.47C151.796 30.5859 150.666 30.1041 149.311 30.0304C147.879 30.0563 146.68 30.5302 145.709 31.4521C144.764 32.3998 144.291 33.5726 144.291 34.9684C144.342 36.2905 144.821 37.3936 145.727 38.2796C146.637 39.1617 147.767 39.6296 149.122 39.6794Z" fill="#F1FFF1"/>
<path d="M57.7215 36.239C58.9476 36.239 59.7963 36.7627 60.2695 37.81C60.7428 38.8573 60.5959 39.8668 59.8289 40.8405C57.9888 42.8356 55.7142 43.8332 53.0071 43.8332C50.4529 43.8332 48.2803 42.961 46.4912 41.2148C44.7021 39.4706 43.8086 37.3501 43.8086 34.8552C43.8086 32.3862 44.7021 30.2796 46.4912 28.5334C48.2783 26.7891 50.4509 25.915 53.0071 25.915C55.7142 25.915 57.9888 26.9126 59.8289 28.9077C60.5959 29.8555 60.7428 30.859 60.2695 31.9183C59.7963 32.9776 58.9476 33.5072 57.7215 33.5072C57.4155 32.4857 56.826 31.6495 55.959 31.0004C55.0899 30.3513 54.1066 30.0287 53.0071 30.0287C51.628 30.0287 50.4591 30.5026 49.5003 31.4504C48.5414 32.3981 48.0641 33.5331 48.0641 34.8552C48.0641 36.2012 48.5435 37.3421 49.5003 38.2779C50.4591 39.2138 51.628 39.6797 53.0071 39.6797C54.1046 39.6797 55.0899 39.3611 55.959 38.7259C56.826 38.0908 57.4135 37.2624 57.7215 36.239Z" fill="#F1FFF1"/>
<path d="M80.792 34.1821C80.8164 34.4071 80.8307 34.6301 80.8307 34.8551V43.8331H78.0339C77.2423 43.8331 76.769 43.3592 76.616 42.4115C75.135 43.3592 73.4867 43.8331 71.6731 43.8331C69.119 43.8331 66.9463 42.961 65.1572 41.2148C63.4457 39.5184 62.5521 37.3998 62.4746 34.8551C62.5521 32.3364 63.4518 30.2357 65.1756 28.5532C66.8994 26.8707 69.0516 25.9907 71.6323 25.917C74.2374 25.9668 76.41 26.8409 78.1481 28.5353C79.7067 30.0545 80.588 31.9362 80.792 34.1821ZM71.7465 39.6796C73.1011 39.6299 74.2313 39.1619 75.1391 38.2779C76.0448 37.3938 76.5385 36.2888 76.614 34.9666C76.5875 33.5709 76.102 32.3981 75.1574 31.4503C74.1864 30.5025 73.0236 30.0287 71.669 30.0287C70.2899 30.0287 69.1149 30.5025 68.1438 31.4503C67.1993 32.3981 66.726 33.533 66.726 34.8551C66.726 36.2011 67.1993 37.35 68.1438 38.2958C69.1149 39.2197 70.3165 39.6796 71.7465 39.6796Z" fill="#F1FFF1"/>
<path d="M101.105 34.6299C101.105 34.7056 101.105 34.7792 101.105 34.8549C101.105 37.3498 100.209 39.4683 98.4221 41.2146C96.633 42.9608 94.4746 43.8329 91.945 43.8329C91.8675 43.8329 91.792 43.8329 91.7145 43.8329C91.6635 43.8329 91.6247 43.8329 91.6002 43.8329C91.3962 43.8329 91.1922 43.8209 90.9862 43.795C90.9597 43.795 90.9229 43.7831 90.8719 43.7572C90.8454 43.7572 90.8087 43.7572 90.7577 43.7572C90.7312 43.7572 90.6945 43.7572 90.6435 43.7572C90.6169 43.7572 90.5802 43.7453 90.5292 43.7194C90.4517 43.7194 90.3762 43.7074 90.2987 43.6815C90.2722 43.6815 90.2355 43.6815 90.1845 43.6815C90.1579 43.6577 90.1212 43.6437 90.0702 43.6437C89.9682 43.6198 89.8519 43.5939 89.7254 43.5681C89.6744 43.5442 89.6112 43.5302 89.5337 43.5302C89.3807 43.4804 89.2399 43.4426 89.1114 43.4187C89.0849 43.3948 89.0604 43.3809 89.0339 43.3809C88.9829 43.357 88.9319 43.3311 88.8809 43.3052C88.8544 43.3052 88.8176 43.3052 88.7666 43.3052C88.7401 43.2813 88.7034 43.2554 88.6524 43.2296C88.6259 43.2296 88.6014 43.2296 88.5749 43.2296C88.4464 43.1798 88.3321 43.13 88.2301 43.0802C88.1791 43.0563 88.1403 43.0305 88.1159 43.0046C87.7323 42.8293 87.3488 42.6302 86.9653 42.4052C86.9388 42.3813 86.9143 42.3674 86.8878 42.3674C86.8612 42.3435 86.8368 42.3176 86.8102 42.2917C86.7592 42.2679 86.7205 42.242 86.696 42.2161C86.6695 42.2161 86.645 42.2041 86.6185 42.1783C86.5675 42.1285 86.5042 42.0787 86.4267 42.0289C86.4002 42.0289 86.3757 42.017 86.3492 41.9911C86.3227 41.9672 86.2982 41.9413 86.2717 41.9154C86.1942 41.8656 86.1187 41.8159 86.0412 41.7661C86.0146 41.7422 86.0024 41.7163 86.0024 41.6904C85.7984 41.5411 85.6066 41.3798 85.4271 41.2046C85.4006 41.1807 85.3884 41.1548 85.3884 41.1289C85.2354 40.9796 85.0824 40.8303 84.9294 40.6809C84.9294 40.657 84.9171 40.6312 84.8906 40.6053C84.8641 40.5814 84.8396 40.5555 84.8131 40.5296C84.7865 40.5057 84.7621 40.4798 84.7355 40.4539C84.6335 40.3305 84.5315 40.1931 84.4295 40.0418C84.403 39.992 84.3663 39.9303 84.3153 39.8546C84.2643 39.8048 84.2255 39.7551 84.2011 39.7053C84.1745 39.6555 84.1501 39.6177 84.1235 39.5938C84.0725 39.4942 84.0215 39.4066 83.9705 39.3329C83.944 39.2832 83.9195 39.2453 83.893 39.2214C83.7645 38.9725 83.638 38.7097 83.5095 38.4349C83.483 38.411 83.4707 38.3852 83.4707 38.3593C83.4442 38.3095 83.432 38.2717 83.432 38.2478C83.4055 38.2239 83.3932 38.186 83.3932 38.1363C83.3667 38.0865 83.3422 38.0248 83.3157 37.9491H83.2769C83.2504 37.8496 83.2259 37.75 83.1994 37.6504C83.1484 37.5011 83.0974 37.3518 83.0464 37.2024C83.0464 37.1268 83.0342 37.0531 83.0076 36.9774C82.9811 36.8779 82.9567 36.7664 82.9301 36.6409C82.9036 36.5912 82.8914 36.5294 82.8914 36.4538C82.8649 36.404 82.8526 36.3662 82.8526 36.3423C82.8526 36.2925 82.8526 36.2547 82.8526 36.2308C82.8526 36.181 82.8404 36.1432 82.8138 36.1193C82.8138 36.0197 82.8016 35.9082 82.7751 35.7828C82.7751 35.7071 82.7751 35.6334 82.7751 35.5578C82.7486 35.3328 82.7363 35.0958 82.7363 34.8469V17.6396H84.8437C85.4312 17.6396 85.9351 17.8388 86.3574 18.239C86.7797 18.6372 86.9898 19.125 86.9898 19.6985V27.3285C88.4463 26.3807 90.0947 25.9068 91.9327 25.9068C94.4624 25.9068 96.6207 26.7809 98.4098 28.5251C100.081 30.1539 100.976 32.1868 101.105 34.6299ZM101.105 34.6299C100.976 32.1609 100.038 30.0921 98.2874 28.4196C96.5371 26.749 94.4236 25.9128 91.945 25.9128C90.1049 25.9128 88.4565 26.3747 87.002 27.2966V27.3344C88.4586 26.3867 90.1069 25.9128 91.945 25.9128C94.4746 25.9128 96.633 26.7869 98.4221 28.5311C100.081 30.1539 100.976 32.1868 101.105 34.6299ZM91.8287 39.6794C93.2588 39.6794 94.4542 39.2115 95.411 38.2776C96.3698 37.3418 96.8614 36.177 96.8859 34.7812C96.8084 33.4591 96.3168 32.356 95.411 31.47C94.5032 30.5859 93.373 30.1041 92.0184 30.0304C90.5863 30.0563 89.3868 30.5302 88.4157 31.4521C87.4712 32.3998 86.9979 33.5726 86.9979 34.9684C87.0489 36.2905 87.5283 37.3936 88.4341 38.2796C89.344 39.1617 90.4741 39.6296 91.8287 39.6794Z" fill="#F1FFF1"/>
<path d="M20.1995 28.874C25.3822 28.874 29.5836 24.7733 29.5836 19.7148C29.5836 14.6564 25.3822 10.5557 20.1995 10.5557C15.0168 10.5557 10.8154 14.6564 10.8154 19.7148C10.8154 24.7733 15.0168 28.874 20.1995 28.874Z" stroke="#F1FFF1" stroke-width="0.75" stroke-miterlimit="10" stroke-dasharray="2.5 2.5"/>
</svg>
