<svg width="148" height="148" viewBox="0 0 148 148" fill="none" xmlns="http://www.w3.org/2000/svg">
<g filter="url(#filter0_d_957_409)">
<circle cx="74" cy="78" r="47" fill="#EDEDED"/>
<circle cx="74" cy="78" r="48" stroke="white" stroke-width="2"/>
</g>
<path d="M55.8637 89.7321C58.9114 89.0413 60.8221 86.0107 60.1313 82.963C59.4404 79.9153 56.4098 78.0047 53.3621 78.6955C50.3144 79.3863 48.4038 82.4169 49.0946 85.4646C49.7854 88.5123 52.816 90.423 55.8637 89.7321Z" fill="#4CAD51"/>
<path d="M79.6586 84.6957C79.9056 81.5793 77.5794 78.8527 74.4629 78.6058C71.3464 78.3588 68.6198 80.685 68.3729 83.8015C68.126 86.9179 70.4522 89.6445 73.5686 89.8915C76.6851 90.1384 79.4117 87.8122 79.6586 84.6957Z" fill="#4CAD51"/>
<path d="M48.6746 90.8623C47.3327 92.3063 46.5098 94.2389 46.5098 96.361V102.829H62.6807V96.361C62.6807 94.2389 61.8579 92.3063 60.5159 90.8624C57.1368 93.8833 52.051 93.8809 48.6746 90.8623Z" fill="#4CAD51"/>
<path d="M68.0808 90.8623C66.7388 92.3062 65.916 94.2388 65.916 96.3608V102.829H82.0869V96.361C82.0869 94.2389 81.264 92.3063 79.922 90.8623C76.5431 93.8833 71.4573 93.8809 68.0808 90.8623Z" fill="#4CAD51"/>
<path d="M99.3263 90.8623C95.9472 93.8834 90.8615 93.8809 87.4851 90.8623C86.1431 92.3063 85.3203 94.2389 85.3203 96.361V102.829H101.491V96.361C101.491 94.2389 100.668 92.3063 99.3263 90.8623Z" fill="#4CAD51"/>
<path d="M97.3971 88.2359C99.6071 86.0259 99.6071 82.4428 97.3971 80.2329C95.1871 78.0229 91.6041 78.0229 89.3941 80.2329C87.1841 82.4428 87.1841 86.0259 89.3941 88.2359C91.6041 90.4458 95.1871 90.4458 97.3971 88.2359Z" fill="#4CAD51"/>
<path d="M64.2969 54.3174H67.531V57.5515H64.2969V54.3174Z" fill="#4CAD51"/>
<path d="M80.4688 54.3164H83.7029V57.5505H80.4688V54.3164Z" fill="#4CAD51"/>
<path d="M72.3828 47.8486H75.6169V51.0827H72.3828V47.8486Z" fill="#4CAD51"/>
<path d="M67.251 64.7048C64.1845 63.0853 61.0645 62.9092 61.0645 62.9092C61.0645 62.9092 61.3731 68.3927 64.9455 71.965C66.2726 73.2922 67.8636 74.1687 69.3394 74.7466C67.628 71.6565 66.7539 68.2548 67.251 64.7048Z" fill="#4CAD51"/>
<path d="M80.7502 64.7048C81.2465 68.2489 80.3766 71.6503 78.6621 74.7466C80.1377 74.1687 81.7288 73.2922 83.056 71.965C86.6284 68.3927 86.937 62.9092 86.937 62.9092C86.937 62.9092 83.8168 63.0852 80.7502 64.7048Z" fill="#4CAD51"/>
<path d="M77.6594 66.6991C77.6594 61.6472 74.0006 57.5518 74.0006 57.5518C74.0006 57.5518 70.3418 61.6472 70.3418 66.6991C70.3418 71.7511 74.0006 75.8465 74.0006 75.8465C74.0006 75.8465 77.6594 71.7511 77.6594 66.6991Z" fill="#4CAD51"/>
<defs>
<filter id="filter0_d_957_409" x="0" y="0" width="148" height="148" filterUnits="userSpaceOnUse" color-interpolation-filters="sRGB">
<feFlood flood-opacity="0" result="BackgroundImageFix"/>
<feColorMatrix in="SourceAlpha" type="matrix" values="0 0 0 0 0 0 0 0 0 0 0 0 0 0 0 0 0 0 127 0" result="hardAlpha"/>
<feOffset dy="-4"/>
<feGaussianBlur stdDeviation="12.5"/>
<feComposite in2="hardAlpha" operator="out"/>
<feColorMatrix type="matrix" values="0 0 0 0 0 0 0 0 0 0 0 0 0 0 0 0 0 0 0.15 0"/>
<feBlend mode="normal" in2="BackgroundImageFix" result="effect1_dropShadow_957_409"/>
<feBlend mode="normal" in="SourceGraphic" in2="effect1_dropShadow_957_409" result="shape"/>
</filter>
</defs>
</svg>
