<svg width="148" height="148" viewBox="0 0 148 148" fill="none" xmlns="http://www.w3.org/2000/svg">
<g filter="url(#filter0_d_957_408)">
<circle cx="74" cy="78" r="47" fill="#EDEDED"/>
<circle cx="74" cy="78" r="48" stroke="white" stroke-width="2"/>
</g>
<path d="M66.7021 52.8075C66.7912 52.8099 66.8807 52.7994 66.9678 52.7742C68.3057 52.3935 69.6858 52.1273 71.0691 51.9824C71.6019 51.9274 71.9889 51.4501 71.933 50.9168C71.8771 50.3835 71.3884 49.9942 70.8674 50.0539C69.3732 50.2102 67.8823 50.4972 66.4374 50.9083C65.9221 51.0551 65.6233 51.5911 65.7696 52.1063C65.8833 52.5072 66.2887 52.7964 66.7021 52.8075Z" fill="#4CAD51"/>
<path d="M58.8498 56.4127C59.0392 56.4168 59.2295 56.3692 59.3904 56.261C60.5497 55.4805 61.774 54.791 63.029 54.2094C63.5149 53.9849 63.7266 53.4081 63.5012 52.9222C63.2767 52.4362 62.7018 52.2241 62.2135 52.4495C60.8661 53.0737 59.5519 53.8144 58.3077 54.6508C57.8631 54.9501 57.7451 55.5523 58.0443 55.9975C58.2163 56.2536 58.532 56.4059 58.8498 56.4127Z" fill="#4CAD51"/>
<path d="M88.6073 99.7374C87.4479 100.518 86.2237 101.207 84.9686 101.789C84.4828 102.013 84.2711 102.59 84.4964 103.076C84.706 103.528 85.3034 103.773 85.7842 103.549C87.1316 102.925 88.4458 102.184 89.6899 101.348C90.1347 101.048 90.2526 100.446 89.9533 100.001C89.6544 99.5574 89.052 99.4381 88.6073 99.7374Z" fill="#4CAD51"/>
<path d="M72.7441 104.162C66.2188 103.839 60.0881 101.124 55.4814 96.5167C50.5366 91.5714 47.8129 84.995 47.8129 77.999C47.8129 71.003 50.5366 64.4266 55.4814 59.4813C55.7734 59.1893 55.8307 58.6761 55.6311 58.3228C55.4397 57.9842 54.9937 57.7647 54.6053 57.8446L47.7466 59.2161C47.2214 59.3212 46.8809 59.8318 46.986 60.3574C47.0873 60.8638 47.617 61.2231 48.1274 61.1181L52.1231 60.319C48.0758 65.3083 45.873 71.4835 45.873 77.999C45.873 85.5131 48.7985 92.5773 54.1099 97.8882C59.0575 102.836 65.6415 105.753 72.6484 106.099C72.6645 106.1 72.6811 106.1 72.6972 106.1C73.2106 106.1 73.6392 105.697 73.6652 105.179C73.6913 104.644 73.2792 104.188 72.7441 104.162Z" fill="#4CAD51"/>
<path d="M81.0311 103.224C79.6932 103.605 78.3131 103.871 76.9298 104.016C76.397 104.071 76.01 104.548 76.0659 105.082C76.118 105.58 76.539 105.95 77.0292 105.95C77.0633 105.95 77.0974 105.948 77.1315 105.945C78.6257 105.788 80.1166 105.501 81.5615 105.09C82.0768 104.943 82.3757 104.407 82.2293 103.892C82.083 103.377 81.5469 103.074 81.0311 103.224Z" fill="#4CAD51"/>
<path d="M99.871 94.8805L95.8753 95.6795C99.9227 90.6903 102.125 84.5151 102.125 77.9996C102.125 70.4855 99.2 63.4213 93.8885 58.1104C88.9409 53.1622 82.3569 50.2458 75.35 49.8991C74.8172 49.8678 74.3597 50.2856 74.3332 50.8198C74.3071 51.355 74.7192 51.8105 75.2544 51.8371C81.7796 52.1601 87.9103 54.8747 92.517 59.4819C97.4618 64.4272 100.186 71.0036 100.186 77.9996C100.186 84.9956 97.4618 91.572 92.517 96.5173C92.2381 96.7963 92.1722 97.2793 92.3416 97.6279C92.5265 98.0084 92.9766 98.2399 93.3932 98.154L100.252 96.7825C100.777 96.6774 101.118 96.1668 101.012 95.6411C100.908 95.1154 100.399 94.7725 99.871 94.8805Z" fill="#4CAD51"/>
<path d="M84.6685 77.9993C84.6685 77.4658 85.105 77.0293 85.6384 77.0293H87.5298C87.3164 74.0129 86.1137 71.2777 84.2514 69.1244L82.9129 70.4532C82.5347 70.8315 81.9236 70.8315 81.5454 70.4532C81.1671 70.0749 81.1671 69.4639 81.5454 69.0856L82.8742 67.7471C80.7209 65.8849 77.9857 64.6821 74.9692 64.4688V66.3601C74.9692 66.8936 74.5327 67.3301 73.9993 67.3301C73.4658 67.3301 73.0294 66.8936 73.0294 66.3601V64.4688C70.0129 64.6821 67.2777 65.8849 65.1244 67.7471L66.4532 69.0856C66.8315 69.4639 66.8315 70.0749 66.4532 70.4532C66.0943 70.8121 65.4639 70.8412 65.0857 70.4532L63.7472 69.1244C61.8849 71.2777 60.6822 74.0129 60.4688 77.0293H62.3601C62.8936 77.0293 63.3301 77.4658 63.3301 77.9993C63.3301 78.5327 62.8936 78.9692 62.3601 78.9692H60.4688C60.6822 81.9857 61.8849 84.7209 63.7471 86.8741L65.0856 85.5453C65.4639 85.167 66.075 85.167 66.4532 85.5453C66.8315 85.9235 66.8315 86.5346 66.4532 86.9129L65.1244 88.2514C67.2777 90.1136 70.0129 91.3163 73.0293 91.5298V89.6384C73.0293 89.105 73.4658 88.6685 73.9993 88.6685C74.5327 88.6685 74.9692 89.105 74.9692 89.6384V91.5298C77.9857 91.3164 80.7209 90.1137 82.8741 88.2514L81.5453 86.9129C81.167 86.5347 81.167 85.9236 81.5453 85.5453C81.9235 85.1671 82.5346 85.1671 82.9129 85.5453L84.2514 86.8741C86.1136 84.7209 87.3163 81.9857 87.5298 78.9692H85.6384C85.105 78.9692 84.6685 78.5327 84.6685 77.9993ZM73.9993 80.9091C72.7384 80.9091 71.6714 80.0943 71.2641 78.9692H68.1797C67.6462 78.9692 67.2098 78.5327 67.2098 77.9993C67.2098 77.4658 67.6462 77.0293 68.1797 77.0293H71.2641C71.5647 76.2049 72.2049 75.5647 73.0293 75.2641V70.2398C73.0293 69.7064 73.4658 69.2699 73.9993 69.2699C74.5327 69.2699 74.9692 69.7064 74.9692 70.2398V75.2641C76.0943 75.6714 76.9091 76.7384 76.9091 77.9993C76.9091 79.5996 75.5997 80.9091 73.9993 80.9091Z" fill="#4CAD51"/>
<path d="M73.9992 78.9692C74.5349 78.9692 74.9692 78.5349 74.9692 77.9992C74.9692 77.4635 74.5349 77.0293 73.9992 77.0293C73.4635 77.0293 73.0293 77.4635 73.0293 77.9992C73.0293 78.5349 73.4635 78.9692 73.9992 78.9692Z" fill="#4CAD51"/>
<path d="M95.5993 73.0437L92.6217 72.6265C92.224 71.2395 91.6614 69.8914 90.9533 68.6304L92.7768 66.2347C93.3588 65.4588 93.2812 64.3725 92.6022 63.6838L88.3152 59.3967C87.6362 58.7081 86.5402 58.6402 85.774 59.2222L83.3685 61.0359C82.1076 60.3376 80.7594 59.775 79.3627 59.387L78.9553 56.3996C78.8195 55.4394 77.9951 54.7217 77.0349 54.7217H70.9631C70.0029 54.7217 69.1785 55.4394 69.0427 56.3996L68.6256 59.3773C67.2386 59.775 65.8904 60.3376 64.6295 61.0456L62.2338 59.2222C61.4578 58.6402 60.3618 58.7081 59.6828 59.3967L55.3958 63.6838C54.7168 64.3725 54.6392 65.4588 55.2212 66.225L57.035 68.6304C56.3366 69.8914 55.7741 71.2395 55.3861 72.6362L52.3987 73.0436C51.4384 73.1794 50.7207 74.0039 50.7207 74.9641V81.0359C50.7207 81.9961 51.4384 82.8205 52.3987 82.9563L55.3764 83.3734C55.7741 84.7603 56.3366 86.1086 57.0447 87.3695L55.2212 89.7652C54.6392 90.5412 54.7071 91.6275 55.3958 92.3161L59.6828 96.6032C60.3618 97.2919 61.4578 97.3597 62.2241 96.7778L64.6295 94.964C65.8904 95.6623 67.2386 96.2249 68.6353 96.6129L69.0427 99.6002C69.1785 100.561 70.0029 101.278 70.9631 101.278H77.0349C77.9951 101.278 78.8195 100.561 78.9553 99.6003L79.3724 96.6226C80.7594 96.2249 82.1076 95.6624 83.3685 94.9543L85.7642 96.7778C86.5402 97.3597 87.6265 97.2822 88.3152 96.6032L92.6022 92.3161C93.2909 91.6275 93.3588 90.5412 92.7768 89.7749L90.963 87.3695C91.6614 86.1086 92.2239 84.7604 92.6119 83.3637L95.5993 82.9563C96.5596 82.8205 97.2773 81.9961 97.2773 81.0359V74.9641C97.2773 74.0039 96.5596 73.1794 95.5993 73.0437ZM84.998 88.931C84.9883 88.9505 84.9883 88.9602 84.9689 88.9699C84.9592 88.9892 84.9495 88.9892 84.9301 88.9989C82.127 91.7923 78.257 93.5188 73.999 93.5188C69.741 93.5188 65.871 91.7923 63.0679 88.9989C63.0485 88.9892 63.0388 88.9892 63.0291 88.9699C63.0097 88.9602 63.0097 88.9505 63 88.931C60.2066 86.128 58.4801 82.258 58.4801 78C58.4801 73.742 60.2066 69.872 63 67.0689C63.0097 67.0494 63.0097 67.0398 63.0291 67.0301C63.0388 67.0107 63.0485 67.0107 63.0679 67.001C65.871 64.2076 69.741 62.4811 73.999 62.4811C78.257 62.4811 82.127 64.2076 84.9301 67.001C84.9495 67.0107 84.9592 67.0107 84.9689 67.0301C84.9883 67.0398 84.9883 67.0494 84.998 67.0689C87.7914 69.872 89.5179 73.742 89.5179 78C89.5179 82.258 87.7914 86.128 84.998 88.931Z" fill="#4CAD51"/>
<defs>
<filter id="filter0_d_957_408" x="0" y="0" width="148" height="148" filterUnits="userSpaceOnUse" color-interpolation-filters="sRGB">
<feFlood flood-opacity="0" result="BackgroundImageFix"/>
<feColorMatrix in="SourceAlpha" type="matrix" values="0 0 0 0 0 0 0 0 0 0 0 0 0 0 0 0 0 0 127 0" result="hardAlpha"/>
<feOffset dy="-4"/>
<feGaussianBlur stdDeviation="12.5"/>
<feComposite in2="hardAlpha" operator="out"/>
<feColorMatrix type="matrix" values="0 0 0 0 0 0 0 0 0 0 0 0 0 0 0 0 0 0 0.15 0"/>
<feBlend mode="normal" in2="BackgroundImageFix" result="effect1_dropShadow_957_408"/>
<feBlend mode="normal" in="SourceGraphic" in2="effect1_dropShadow_957_408" result="shape"/>
</filter>
</defs>
</svg>
