<svg width="148" height="148" viewBox="0 0 148 148" fill="none" xmlns="http://www.w3.org/2000/svg">
<g filter="url(#filter0_d_957_407)">
<circle cx="74" cy="78" r="47" fill="#EDEDED"/>
<circle cx="74" cy="78" r="48" stroke="white" stroke-width="2"/>
</g>
<path d="M82.4127 64.8672C81.2758 61.6229 78.7594 58.8127 75.3859 56.7608H91.424H91.6572L91.807 56.5822L95.383 52.3214L96.0724 51.5H95H56.576H56.3428L56.193 51.6786L52.617 55.9394L51.9276 56.7608H53H64.4737C69.9536 57.584 74.3436 60.7615 76.0626 64.8672H56.576H56.3428L56.193 65.0458L52.617 69.3066L51.9276 70.128H53H76.7551C75.9123 76.1453 69.5617 80.9554 61.6706 80.9554C61.6236 80.9554 61.5765 80.9552 61.5283 80.9549L61.028 80.9522L61.0257 81.4526C61.0219 82.2629 61.0189 83.0671 61.016 83.8624L61.0153 84.0693L61.1611 84.2163L85.1051 108.352L85.2518 108.5H85.4601H94.337H95.6067L94.6779 107.634L68.7727 83.4867C76.457 81.5199 82.2507 76.4091 82.9982 70.128H91.424H91.6572L91.807 69.9495L95.383 65.6887L96.0724 64.8672H95H82.4127Z" fill="#4CAD51" stroke="#4CAD51"/>
<defs>
<filter id="filter0_d_957_407" x="0" y="0" width="148" height="148" filterUnits="userSpaceOnUse" color-interpolation-filters="sRGB">
<feFlood flood-opacity="0" result="BackgroundImageFix"/>
<feColorMatrix in="SourceAlpha" type="matrix" values="0 0 0 0 0 0 0 0 0 0 0 0 0 0 0 0 0 0 127 0" result="hardAlpha"/>
<feOffset dy="-4"/>
<feGaussianBlur stdDeviation="12.5"/>
<feComposite in2="hardAlpha" operator="out"/>
<feColorMatrix type="matrix" values="0 0 0 0 0 0 0 0 0 0 0 0 0 0 0 0 0 0 0.15 0"/>
<feBlend mode="normal" in2="BackgroundImageFix" result="effect1_dropShadow_957_407"/>
<feBlend mode="normal" in="SourceGraphic" in2="effect1_dropShadow_957_407" result="shape"/>
</filter>
</defs>
</svg>
