<svg width="94" height="86" viewBox="0 0 94 86" fill="none" xmlns="http://www.w3.org/2000/svg">
<path d="M84.7285 0H9.27148C4.14922 0 0 4.13086 0 9.25313V59.9434C0 65.0656 4.14922 69.2148 9.25313 69.2148H32.1473L43.5117 83.8289C44.9988 85.7566 47.7711 86.0871 49.6988 84.6C49.9926 84.3797 50.2496 84.1227 50.4699 83.8289L61.8344 69.2148H84.7285C89.8508 69.2148 94 65.0656 94 59.9617V9.25313C94 4.14922 89.8508 0 84.7285 0ZM47 57.6301C34.2219 57.6301 23.8672 47.2754 23.8672 34.4973C23.8672 21.7191 34.2219 11.3645 47 11.3645C59.7781 11.3645 70.1328 21.7191 70.1328 34.4973C70.1328 47.2754 59.7781 57.6301 47 57.6301Z" fill="#FF3939"/>
<path d="M35.0692 47.7276C35.897 48.752 39.1673 44.8705 47.0902 44.8826C55.0131 44.8705 58.2834 48.752 59.1112 47.7276C59.8214 46.8485 55.0131 40.6947 47.0902 40.6826C39.1673 40.6947 34.359 46.8485 35.0692 47.7276Z" fill="#FF3939"/>
<path d="M39.2765 33.4493C41.0871 33.4493 42.5549 31.0877 42.5549 28.1746C42.5549 25.2615 41.0871 22.8999 39.2765 22.8999C37.4659 22.8999 35.998 25.2615 35.998 28.1746C35.998 31.0877 37.4659 33.4493 39.2765 33.4493Z" fill="#FF3939"/>
<path d="M55.0128 33.4493C56.8234 33.4493 58.2913 31.0877 58.2913 28.1746C58.2913 25.2615 56.8234 22.8999 55.0128 22.8999C53.2022 22.8999 51.7344 25.2615 51.7344 28.1746C51.7344 31.0877 53.2022 33.4493 55.0128 33.4493Z" fill="#FF3939"/>
</svg>
