<?xml version="1.0" encoding="utf-8"?>
<!-- Generator: Adobe Illustrator 26.0.1, SVG Export Plug-In . SVG Version: 6.00 Build 0)  -->
<svg version="1.1" id="Layer_1" xmlns="http://www.w3.org/2000/svg" xmlns:xlink="http://www.w3.org/1999/xlink" x="0px" y="0px"
	 viewBox="0 0 94 86" style="enable-background:new 0 0 94 86;" xml:space="preserve">
<style type="text/css">
	.st0{fill:#4DAC51;}
</style>
<path class="st0" d="M84.7,0H9.3C4.1,0,0,4.1,0,9.3v50.7c0,5.1,4.1,9.3,9.3,9.3h22.9l11.4,14.6c1.5,1.9,4.3,2.3,6.2,0.8
	c0.3-0.2,0.6-0.5,0.8-0.8l11.4-14.6h22.9c5.1,0,9.3-4.1,9.3-9.3V9.3C94,4.1,89.9,0,84.7,0z M47,57.6c-12.8,0-23.1-10.4-23.1-23.1
	c0-12.8,10.4-23.1,23.1-23.1s23.1,10.4,23.1,23.1C70.1,47.3,59.8,57.6,47,57.6z"/>
<path class="st0" d="M47,44.9c3-0.1,5.9-0.7,8.5-2.2c1.2-0.7,2.3-1.5,3.3-2.4c0.3-0.3,0.4-0.5,0.1-0.8c-0.2-0.3-0.3-0.6-0.3-1
	c0-0.3,0.1-0.5,0.4-0.5c0.3,0,0.4,0.2,0.4,0.4c0,0.6,0.4,1.1,0.8,1.4c0.4,0.3,0.8,0.6,1.4,0.4c0.2-0.1,0.4,0,0.5,0.2
	c0.1,0.3-0.1,0.4-0.3,0.5c-0.6,0.3-1.1,0.1-1.6-0.1c-0.3-0.1-0.4-0.1-0.6,0.2c-1.7,2.5-3.8,4.6-6.6,5.8c-4.7,2.1-9.3,1.8-13.7-0.8
	c-2.1-1.2-3.8-2.9-5.1-5c-0.3-0.4-0.5-0.5-0.9-0.2c-0.4,0.2-0.8,0.3-1.2,0.2c-0.3,0-0.6-0.1-0.6-0.5c0-0.4,0.3-0.4,0.6-0.3
	c0.9,0.1,1.9-0.7,2.1-1.8c0.1-0.3,0.2-0.5,0.5-0.5c0.4,0,0.4,0.4,0.4,0.6c0,0.2,0,0.5-0.2,0.6c-0.4,0.5-0.2,0.8,0.2,1.2
	c2.7,2.6,6,4,9.7,4.4c0.3,0,0.6,0.1,0.9,0.1C46.4,44.9,46.7,44.9,47,44.9z"/>
<path class="st0" d="M39.7,28.6c0,1.5-1.1,2.7-2.6,2.7c-1.5,0-2.6-1.1-2.6-2.7c0-1.4,1.1-2.6,2.6-2.6C38.6,26,39.7,27.2,39.7,28.6z"
	/>
<path class="st0" d="M54.4,28.4c0.1-1.3,1.4-2.4,2.8-2.3c1.5,0.1,2.5,1.3,2.4,2.9c-0.1,1.3-1.3,2.4-2.7,2.3
	C55.4,31.2,54.3,30,54.4,28.4z"/>
</svg>
