<svg width="25" height="26" viewBox="0 0 25 26" fill="none" xmlns="http://www.w3.org/2000/svg">
<path d="M0.069211 25.7276C0.896951 26.752 4.16726 22.8705 12.0902 22.8826C20.0131 22.8705 23.2834 26.752 24.1112 25.7276C24.8214 24.8485 20.0131 18.6947 12.0902 18.6826C4.16726 18.6947 -0.64103 24.8485 0.069211 25.7276Z" fill="#FF3939"/>
<path d="M4.27649 11.4493C6.08712 11.4493 7.55493 9.08775 7.55493 6.17461C7.55493 3.26147 6.08712 0.899902 4.27649 0.899902C2.46585 0.899902 0.998047 3.26147 0.998047 6.17461C0.998047 9.08775 2.46585 11.4493 4.27649 11.4493Z" fill="#FF3939"/>
<path d="M20.0128 11.4493C21.8234 11.4493 23.2913 9.08775 23.2913 6.17461C23.2913 3.26147 21.8234 0.899902 20.0128 0.899902C18.2022 0.899902 16.7344 3.26147 16.7344 6.17461C16.7344 9.08775 18.2022 11.4493 20.0128 11.4493Z" fill="#FF3939"/>
</svg>
