<svg width="121" height="117" viewBox="0 0 121 117" fill="none" xmlns="http://www.w3.org/2000/svg">
<g clip-path="url(#clip0_741_558)">
<g filter="url(#filter0_d_741_558)">
<path d="M60.2695 109.588C88.6119 109.588 111.588 86.6119 111.588 58.2695C111.588 29.9272 88.6119 6.95117 60.2695 6.95117C31.9272 6.95117 8.95117 29.9272 8.95117 58.2695C8.95117 86.6119 31.9272 109.588 60.2695 109.588Z" fill="#4CAD51" stroke="white" stroke-width="2.5"/>
<path d="M72.028 45.3066C72.0823 45.2861 72.1431 45.2659 72.1904 45.2321C72.5561 44.9951 81.0605 39.3887 81.0605 32.7124C81.0605 27.5663 76.876 23.3818 71.73 23.3818C66.5908 23.3818 62.4062 27.5663 62.4062 32.7124C62.4062 39.3887 70.9107 44.9951 71.2696 45.2321C71.3238 45.2659 71.3779 45.2861 71.432 45.3066C68.4866 45.3606 65.6088 46.1665 65.6088 47.9067C65.6088 49.7012 68.6828 50.5001 71.7298 50.5001C74.7767 50.5001 77.8507 49.7012 77.8507 47.9067C77.8509 46.1663 74.9732 45.3606 72.028 45.3066ZM67.3626 32.7801C67.3626 30.3696 69.3263 28.4127 71.73 28.4127C74.1405 28.4127 76.0973 30.3696 76.0973 32.7801C76.0973 35.1838 74.1405 37.1474 71.73 37.1474C69.3263 37.1474 67.3626 35.1838 67.3626 32.7801ZM71.73 48.8071C69.2314 48.8071 67.7485 48.2316 67.3626 47.8997C67.7485 47.5747 69.2314 46.9993 71.73 46.9993C74.2352 46.9993 75.7182 47.5749 76.0973 47.8997C75.7182 48.2316 74.2352 48.8071 71.73 48.8071Z" fill="white"/>
<path d="M40.6843 48.6309C32.3491 48.6309 25.5645 55.4155 25.5645 63.7507C25.5645 74.686 39.6279 83.9555 40.2239 84.3482C40.3661 84.4363 40.5285 84.4836 40.6843 84.4836C40.8467 84.4836 41.0093 84.4361 41.1515 84.3482C41.7473 83.9555 55.811 74.686 55.811 63.7507C55.811 55.4155 49.0263 48.6309 40.6843 48.6309ZM40.6843 71.7947C36.3169 71.7947 32.7621 68.2398 32.7621 63.8657C32.7621 59.4983 36.3169 55.9434 40.6843 55.9434C45.0585 55.9434 48.6131 59.4983 48.6131 63.8657C48.6133 68.2398 45.0585 71.7947 40.6843 71.7947Z" fill="white"/>
<path d="M40.6842 85.5332C36.0054 85.5332 30.9609 86.7182 30.9609 89.325C30.9609 91.9317 36.0054 93.1236 40.6842 93.1236C45.3698 93.1236 50.4143 91.9319 50.4143 89.325C50.4143 86.7182 45.3698 85.5332 40.6842 85.5332ZM40.6842 91.4309C35.3892 91.4309 32.6536 89.9548 32.6536 89.325C32.6536 88.6953 35.3892 87.2259 40.6842 87.2259C45.9859 87.2259 48.7214 88.6953 48.7214 89.325C48.7216 89.9548 45.9861 91.4309 40.6842 91.4309Z" fill="white"/>
<path d="M52.9362 88.4795C52.4688 88.4795 52.0898 88.8584 52.0898 89.3259C52.0898 89.7933 52.4688 90.1722 52.9362 90.1722H54.9676C55.435 90.1722 55.8139 89.7933 55.8139 89.3259C55.8139 88.8584 55.435 88.4795 54.9676 88.4795H52.9362Z" fill="white"/>
<path d="M63.1846 71.542C63.3334 71.8382 63.6322 72.0094 63.9424 72.0094C64.0694 72.0094 64.1989 71.981 64.3207 71.9201C64.7387 71.7104 64.9079 71.2019 64.699 70.7841C64.2989 69.9854 64.0966 69.125 64.0972 68.2264C64.0972 67.9599 64.1156 67.6901 64.1527 67.4249C64.2168 66.9621 63.8935 66.5343 63.4307 66.47C62.9699 66.4105 62.5401 66.7292 62.4758 67.192C62.4281 67.5339 62.4043 67.8818 62.4043 68.2256C62.4037 69.3896 62.6663 70.5051 63.1846 71.542Z" fill="white"/>
<path d="M77.933 74.7956C77.933 74.3281 77.554 73.9492 77.0866 73.9492H73.1198C72.6524 73.9492 72.2734 74.3281 72.2734 74.7956C72.2734 75.263 72.6524 75.6419 73.1198 75.6419H77.0866C77.5542 75.6419 77.933 75.263 77.933 74.7956Z" fill="white"/>
<path d="M58.2721 88.4795C57.8047 88.4795 57.4258 88.8584 57.4258 89.3259C57.4258 89.7933 57.8047 90.1722 58.2721 90.1722H62.239C62.7064 90.1722 63.0853 89.7933 63.0853 89.3259C63.0853 88.8584 62.7064 88.4795 62.239 88.4795H58.2721Z" fill="white"/>
<path d="M87.6378 76.5174C87.3178 76.1762 86.7822 76.1597 86.4416 76.4784C86.1003 76.7978 86.0831 77.3333 86.4025 77.6746C87.2086 78.5348 87.7608 79.5954 87.9995 80.7428C88.0828 81.1421 88.4347 81.4165 88.8274 81.4165C88.8843 81.4165 88.9424 81.4105 89.0007 81.3987C89.4583 81.3036 89.7519 80.8551 89.6566 80.3975C89.3543 78.9461 88.6562 77.6045 87.6378 76.5174Z" fill="white"/>
<path d="M85.0901 75.5704C85.2567 75.1334 85.0372 74.6448 84.6008 74.4781C83.6798 74.1271 82.7084 73.9492 81.7145 73.9492H80.3913C79.9238 73.9492 79.5449 74.3281 79.5449 74.7956C79.5449 75.263 79.9238 75.6419 80.3913 75.6419H81.7145C82.502 75.6419 83.2704 75.7827 83.9978 76.0599C84.0969 76.0976 84.1989 76.1154 84.2994 76.1154C84.6399 76.1152 84.9619 75.9077 85.0901 75.5704Z" fill="white"/>
<path d="M67.9952 62.7996C68.4389 62.6508 68.677 62.1713 68.5282 61.7283C68.38 61.2853 67.8999 61.0446 67.4569 61.1954C66.0286 61.6749 64.7935 62.5681 63.8842 63.7781C63.6039 64.1524 63.6794 64.6828 64.0529 64.9638C64.2057 65.0781 64.3841 65.133 64.5608 65.133C64.8179 65.133 65.0719 65.016 65.2385 64.7951C65.9408 63.8596 66.8937 63.1699 67.9952 62.7996Z" fill="white"/>
<path d="M83.7479 88.1518C83.0953 88.3693 82.4109 88.4798 81.7146 88.4798H80.0885C79.6211 88.4798 79.2422 88.8588 79.2422 89.3262C79.2422 89.7936 79.6211 90.1725 80.0885 90.1725H81.7146C82.5934 90.1725 83.4583 90.033 84.2835 89.7574C84.7271 89.6092 84.9666 89.1299 84.8184 88.6869C84.6704 88.2435 84.1901 88.0022 83.7479 88.1518Z" fill="white"/>
<path d="M65.5436 90.1722H69.5104C69.9779 90.1722 70.3568 89.7933 70.3568 89.3259C70.3568 88.8584 69.9779 88.4795 69.5104 88.4795H65.5436C65.0762 88.4795 64.6973 88.8584 64.6973 89.3259C64.6973 89.7935 65.076 90.1722 65.5436 90.1722Z" fill="white"/>
<path d="M70.6604 74.7959C70.661 74.3285 70.282 73.9496 69.8146 73.949C68.6476 73.9476 67.5247 73.5979 66.568 72.936C66.183 72.6708 65.6567 72.7668 65.3904 73.1509C65.1246 73.535 65.2211 74.0627 65.6053 74.3285C66.8457 75.1861 68.3011 75.6405 69.8134 75.6417H69.814C70.2808 75.6417 70.6596 75.2636 70.6604 74.7959Z" fill="white"/>
<path d="M72.8171 90.1722H76.7839C77.2513 90.1722 77.6302 89.7933 77.6302 89.3259C77.6302 88.8584 77.2513 88.4795 76.7839 88.4795H72.8171C72.3496 88.4795 71.9707 88.8584 71.9707 89.3259C71.9707 89.7935 72.3496 90.1722 72.8171 90.1722Z" fill="white"/>
<path d="M88.9679 83.0256C88.5163 82.9093 88.0546 83.1856 87.9397 83.6387C87.6521 84.7754 87.0563 85.8128 86.2159 86.6388C85.8827 86.9668 85.8781 87.5023 86.2053 87.8356C86.3713 88.0042 86.5902 88.0889 86.8089 88.0889C87.0232 88.0889 87.2373 88.0082 87.4021 87.8462C88.464 86.8022 89.2172 85.4908 89.5809 84.054C89.6953 83.6002 89.4207 83.14 88.9679 83.0256Z" fill="white"/>
<path d="M71.4109 61.9973C72.1415 61.4808 72.5773 60.6385 72.5767 59.7458V57.6061C72.5767 57.1387 72.1978 56.7598 71.7304 56.7598C71.2629 56.7598 70.884 57.1387 70.884 57.6061V59.7466C70.8846 60.0911 70.716 60.4158 70.4338 60.6154C70.0523 60.8852 69.9617 61.4129 70.2315 61.795C70.3961 62.0284 70.6573 62.1527 70.9233 62.1527C71.0917 62.1527 71.2623 62.1025 71.4109 61.9973Z" fill="white"/>
<path d="M71.7311 55.1128C72.1986 55.1128 72.5775 54.7338 72.5775 54.2664V52.235C72.5775 51.7676 72.1986 51.3887 71.7311 51.3887C71.2637 51.3887 70.8848 51.7676 70.8848 52.235V54.2664C70.8848 54.7338 71.2637 55.1128 71.7311 55.1128Z" fill="white"/>
</g>
</g>
<defs>
<filter id="filter0_d_741_558" x="-4.29883" y="-4.29883" width="129.137" height="129.137" filterUnits="userSpaceOnUse" color-interpolation-filters="sRGB">
<feFlood flood-opacity="0" result="BackgroundImageFix"/>
<feColorMatrix in="SourceAlpha" type="matrix" values="0 0 0 0 0 0 0 0 0 0 0 0 0 0 0 0 0 0 127 0" result="hardAlpha"/>
<feOffset dy="2"/>
<feGaussianBlur stdDeviation="6"/>
<feComposite in2="hardAlpha" operator="out"/>
<feColorMatrix type="matrix" values="0 0 0 0 0 0 0 0 0 0 0 0 0 0 0 0 0 0 0.25 0"/>
<feBlend mode="normal" in2="BackgroundImageFix" result="effect1_dropShadow_741_558"/>
<feBlend mode="normal" in="SourceGraphic" in2="effect1_dropShadow_741_558" result="shape"/>
</filter>
<clipPath id="clip0_741_558">
<rect width="121" height="117" fill="white"/>
</clipPath>
</defs>
</svg>
