<svg width="121" height="127" viewBox="0 0 121 127" fill="none" xmlns="http://www.w3.org/2000/svg">
<g clip-path="url(#clip0_741_492)">
<g filter="url(#filter0_d_741_492)">
<path d="M60.2695 114.588C88.6119 114.588 111.588 91.6119 111.588 63.2695C111.588 34.9272 88.6119 11.9512 60.2695 11.9512C31.9272 11.9512 8.95117 34.9272 8.95117 63.2695C8.95117 91.6119 31.9272 114.588 60.2695 114.588Z" fill="#4CAD51" stroke="white" stroke-width="2.5"/>
<path d="M37.1429 35C36.3978 35 35.7857 35.6121 35.7857 36.3571V37.7143H33.0714C30.8389 37.7143 29 39.5532 29 41.7857V74.3571C29 76.5896 30.8389 78.4286 33.0714 78.4286H52.0714C52.8165 78.4286 53.4286 77.8165 53.4286 77.0714C53.4286 76.3264 52.8165 75.7143 52.0714 75.7143H33.0714C32.3074 75.7143 31.7143 75.1212 31.7143 74.3571V48.5714H69.7143V60.7857C69.7143 61.5308 70.3264 62.1429 71.0714 62.1429C71.8165 62.1429 72.4286 61.5308 72.4286 60.7857V41.7857C72.4286 39.5532 70.5896 37.7143 68.3571 37.7143H65.6429V36.3571C65.6429 35.6121 65.0308 35 64.2857 35C63.5406 35 62.9286 35.6121 62.9286 36.3571V37.7143H52.0714V36.3571C52.0714 35.6121 51.4594 35 50.7143 35C49.9692 35 49.3571 35.6121 49.3571 36.3571V37.7143H38.5V36.3571C38.5 35.6121 37.8879 35 37.1429 35ZM33.0714 40.4286H35.7857V41.7857C35.7857 42.5308 36.3978 43.1429 37.1429 43.1429C37.8879 43.1429 38.5 42.5308 38.5 41.7857V40.4286H49.3571V41.7857C49.3571 42.5308 49.9692 43.1429 50.7143 43.1429C51.4594 43.1429 52.0714 42.5308 52.0714 41.7857V40.4286H62.9286V41.7857C62.9286 42.5308 63.5406 43.1429 64.2857 43.1429C65.0308 43.1429 65.6429 42.5308 65.6429 41.7857V40.4286H68.3571C69.1212 40.4286 69.7143 41.0216 69.7143 41.7857V45.8571H31.7143V41.7857C31.7143 41.0216 32.3074 40.4286 33.0714 40.4286ZM37.1429 51.2857C35.6446 51.2857 34.4286 52.5017 34.4286 54V56.7143C34.4286 58.2126 35.6446 59.4286 37.1429 59.4286H39.8571C41.3554 59.4286 42.5714 58.2126 42.5714 56.7143V54C42.5714 52.5017 41.3554 51.2857 39.8571 51.2857H37.1429ZM49.3571 51.2857C47.8589 51.2857 46.6429 52.5017 46.6429 54V56.7143C46.6429 58.2126 47.8589 59.4286 49.3571 59.4286H52.0714C53.5697 59.4286 54.7857 58.2126 54.7857 56.7143V54C54.7857 52.5017 53.5697 51.2857 52.0714 51.2857H49.3571ZM61.5714 51.2857C60.0731 51.2857 58.8571 52.5017 58.8571 54V56.7143C58.8571 58.2126 60.0731 59.4286 61.5714 59.4286H64.2857C65.784 59.4286 67 58.2126 67 56.7143V54C67 52.5017 65.784 51.2857 64.2857 51.2857H61.5714ZM37.1429 63.5C35.6446 63.5 34.4286 64.716 34.4286 66.2143V68.9286C34.4286 70.4269 35.6446 71.6429 37.1429 71.6429H39.8571C41.3554 71.6429 42.5714 70.4269 42.5714 68.9286V66.2143C42.5714 64.716 41.3554 63.5 39.8571 63.5H37.1429ZM49.3571 63.5C47.8589 63.5 46.6429 64.716 46.6429 66.2143V68.9286C46.6429 70.4269 47.8589 71.6429 49.3571 71.6429H52.0714C53.5697 71.6429 54.7857 70.4269 54.7857 68.9286V66.2143C54.7857 64.716 53.5697 63.5 52.0714 63.5H49.3571ZM67 64.8707C66.145 64.8707 65.2683 64.9331 64.4241 65.4081C63.5786 65.8831 62.9421 66.9539 62.9421 68.0668C62.9421 68.8037 63.5474 69.4104 64.2844 69.4104H64.2871C65.024 69.4104 65.6293 68.8051 65.6293 68.0681C65.6293 67.6827 65.5994 67.8266 65.7379 67.7492C65.8763 67.6719 66.3567 67.5579 67 67.5579H75.1429C75.7861 67.5579 76.2666 67.6719 76.405 67.7492C76.5434 67.8266 76.5136 67.6814 76.5136 68.0668C76.5136 68.8037 77.1189 69.4104 77.8558 69.4104H77.8585C78.5954 69.4104 79.2007 68.8051 79.2007 68.0681C79.2007 66.9553 78.5642 65.8831 77.7187 65.4081C76.8746 64.9331 75.9979 64.8707 75.1429 64.8707H67ZM60.2143 70.2857C57.9669 70.2857 56.1429 72.1097 56.1429 74.3571V87.9286C56.1429 90.176 57.9669 92 60.2143 92H61.5714V70.2857H60.2143ZM64.2857 70.2857V92H77.8571V70.2857H64.2857ZM80.5714 70.2857V92H81.9286C84.176 92 86 90.176 86 87.9286V74.3571C86 72.1097 84.176 70.2857 81.9286 70.2857H80.5714Z" fill="white"/>
</g>
</g>
<defs>
<filter id="filter0_d_741_492" x="-4.29883" y="0.701172" width="129.137" height="129.137" filterUnits="userSpaceOnUse" color-interpolation-filters="sRGB">
<feFlood flood-opacity="0" result="BackgroundImageFix"/>
<feColorMatrix in="SourceAlpha" type="matrix" values="0 0 0 0 0 0 0 0 0 0 0 0 0 0 0 0 0 0 127 0" result="hardAlpha"/>
<feOffset dy="2"/>
<feGaussianBlur stdDeviation="6"/>
<feComposite in2="hardAlpha" operator="out"/>
<feColorMatrix type="matrix" values="0 0 0 0 0 0 0 0 0 0 0 0 0 0 0 0 0 0 0.25 0"/>
<feBlend mode="normal" in2="BackgroundImageFix" result="effect1_dropShadow_741_492"/>
<feBlend mode="normal" in="SourceGraphic" in2="effect1_dropShadow_741_492" result="shape"/>
</filter>
<clipPath id="clip0_741_492">
<rect width="121" height="117" fill="white" transform="translate(0 5)"/>
</clipPath>
</defs>
</svg>
