<svg width="214" height="63" viewBox="0 0 214 63" fill="none" xmlns="http://www.w3.org/2000/svg">
<path d="M32.535 33.061C35.4902 30.126 35.4902 25.3675 32.535 22.4325C29.5799 19.4976 24.7887 19.4976 21.8336 22.4325C18.8785 25.3675 18.8785 30.126 21.8336 33.061C24.7887 35.996 29.5799 35.996 32.535 33.061Z" fill="#4CAD50"/>
<path d="M7.96079 46.8389L21.5767 60.362C24.6738 63.438 29.6957 63.438 32.7928 60.362L46.4087 46.8389C57.0263 36.2937 57.0263 19.2011 46.4087 8.65585C35.7911 -1.88935 18.5811 -1.88935 7.96353 8.65585C-2.65405 19.2011 -2.65406 36.2965 7.96079 46.8389ZM39.8904 15.1297C46.9084 22.0998 46.9084 33.3977 39.8904 40.3678C32.8724 47.338 21.497 47.338 14.4791 40.3678C7.46107 33.3977 7.46107 22.0998 14.4791 15.1297C21.497 8.15954 32.8724 8.15954 39.8904 15.1297Z" fill="#4CAD50"/>
<path d="M136.075 15.7351C129.779 15.7351 124.675 20.8045 124.675 27.0575C124.675 33.3104 129.779 38.3799 136.075 38.3799C142.371 38.3799 147.475 33.3104 147.475 27.0575C147.475 20.8045 142.371 15.7351 136.075 15.7351ZM136.075 31.9006C133.381 31.9006 131.199 29.7326 131.199 27.0575C131.199 24.3823 133.381 22.2144 136.075 22.2144C138.768 22.2144 140.951 24.3823 140.951 27.0575C140.951 29.7326 138.768 31.9006 136.075 31.9006Z" fill="#4CAD50"/>
<path d="M154.8 50.3785C156.45 50.3785 157.593 51.0957 158.23 52.5301C158.867 53.9645 158.669 55.3471 157.637 56.6806C155.16 59.413 152.099 60.7792 148.455 60.7792C145.017 60.7792 142.093 59.5848 139.685 57.1932C137.277 54.8044 136.075 51.9002 136.075 48.4833C136.075 45.1018 137.277 42.2167 139.685 39.8251C142.091 37.4363 145.015 36.2392 148.455 36.2392C152.099 36.2392 155.16 37.6054 157.637 40.3378C158.669 41.6358 158.867 43.0102 158.23 44.461C157.593 45.9117 156.45 46.6371 154.8 46.6371C154.388 45.2382 153.595 44.0928 152.428 43.2039C151.258 42.3149 149.935 41.8731 148.455 41.8731C146.599 41.8731 145.026 42.5221 143.735 43.8201C142.445 45.1182 141.802 46.6726 141.802 48.4833C141.802 50.3267 142.447 51.8893 143.735 53.1709C145.026 54.4526 146.599 55.0907 148.455 55.0907C149.932 55.0907 151.258 54.6544 152.428 53.7845C153.595 52.9146 154.386 51.7775 154.8 50.3785Z" fill="#4CAD50"/>
<path d="M185.852 47.5616C185.885 47.8697 185.904 48.1752 185.904 48.4833V60.7792H182.139C181.074 60.7792 180.437 60.1302 180.231 58.8322C178.238 60.1302 176.019 60.7792 173.578 60.7792C170.141 60.7792 167.217 59.5848 164.809 57.1933C162.505 54.8699 161.302 51.9684 161.198 48.4833C161.302 45.0337 162.513 42.1567 164.833 39.8524C167.153 37.5481 170.05 36.3428 173.523 36.2419C177.03 36.3101 179.954 37.5072 182.293 39.8279C184.388 41.9086 185.577 44.4856 185.852 47.5616ZM173.677 55.0908C175.5 55.0226 177.021 54.3817 178.243 53.171C179.462 51.9602 180.127 50.4467 180.228 48.636C180.193 46.7244 179.539 45.1182 178.268 43.8202C176.961 42.5221 175.396 41.8731 173.573 41.8731C171.717 41.8731 170.135 42.5221 168.828 43.8202C167.557 45.1182 166.92 46.6726 166.92 48.4833C166.92 50.3267 167.557 51.9002 168.828 53.1955C170.135 54.4608 171.752 55.0908 173.677 55.0908Z" fill="#4CAD50"/>
<path d="M213.188 48.1752C213.188 48.2788 213.188 48.3797 213.188 48.4833C213.188 51.9002 211.982 54.8017 209.577 57.1933C207.169 59.5848 204.264 60.7792 200.859 60.7792C200.755 60.7792 200.653 60.7792 200.549 60.7792C200.48 60.7792 200.428 60.7792 200.395 60.7792C200.121 60.7792 199.846 60.7629 199.569 60.7274C199.533 60.7274 199.484 60.711 199.415 60.6756C199.379 60.6756 199.33 60.6756 199.261 60.6756C199.226 60.6756 199.176 60.6756 199.108 60.6756C199.072 60.6756 199.023 60.6592 198.954 60.6238C198.85 60.6238 198.748 60.6074 198.644 60.572C198.608 60.572 198.558 60.572 198.49 60.572C198.454 60.5392 198.405 60.5202 198.336 60.5202C198.199 60.4874 198.042 60.452 197.872 60.4165C197.803 60.3838 197.718 60.3647 197.614 60.3647C197.408 60.2966 197.219 60.2447 197.046 60.212C197.01 60.1793 196.977 60.1602 196.941 60.1602C196.873 60.1275 196.804 60.092 196.735 60.0566C196.7 60.0566 196.65 60.0566 196.582 60.0566C196.546 60.0239 196.496 59.9884 196.428 59.9529C196.392 59.9529 196.359 59.9529 196.323 59.9529C196.151 59.8848 195.997 59.8166 195.859 59.7484C195.791 59.7157 195.739 59.6803 195.706 59.6448C195.19 59.4048 194.673 59.1321 194.157 58.824C194.121 58.7913 194.089 58.7722 194.053 58.7722C194.017 58.7394 193.984 58.704 193.948 58.6685C193.88 58.6358 193.828 58.6004 193.795 58.5649C193.759 58.5649 193.726 58.5486 193.69 58.5131C193.622 58.4449 193.537 58.3768 193.432 58.3086C193.397 58.3086 193.364 58.2922 193.328 58.2568C193.292 58.224 193.259 58.1886 193.224 58.1531C193.119 58.085 193.018 58.0168 192.913 57.9486C192.878 57.9159 192.861 57.8804 192.861 57.845C192.587 57.6405 192.329 57.4196 192.087 57.1796C192.051 57.1469 192.035 57.1114 192.035 57.076C191.829 56.8715 191.623 56.6669 191.417 56.4624C191.417 56.4297 191.4 56.3943 191.365 56.3588C191.329 56.3261 191.296 56.2906 191.26 56.2552C191.225 56.2225 191.192 56.187 191.156 56.1515C191.019 55.9825 190.882 55.7943 190.744 55.5871C190.709 55.5189 190.659 55.4344 190.59 55.3307C190.522 55.2626 190.47 55.1944 190.437 55.1262C190.401 55.058 190.368 55.0062 190.332 54.9735C190.264 54.8371 190.195 54.7172 190.126 54.6163C190.091 54.5481 190.058 54.4963 190.022 54.4636C189.849 54.1227 189.679 53.7627 189.506 53.3864C189.47 53.3537 189.454 53.3182 189.454 53.2828C189.418 53.2146 189.402 53.1628 189.402 53.1301C189.366 53.0973 189.349 53.0455 189.349 52.9773C189.314 52.9092 189.281 52.8246 189.245 52.721H189.193C189.157 52.5847 189.124 52.4483 189.089 52.312C189.02 52.1075 188.951 51.9029 188.883 51.6984C188.883 51.5948 188.866 51.4939 188.831 51.3903C188.795 51.2539 188.762 51.1012 188.726 50.9294C188.69 50.8612 188.674 50.7767 188.674 50.6731C188.638 50.6049 188.622 50.5531 188.622 50.5203C188.622 50.4522 188.622 50.4004 188.622 50.3676C188.622 50.2995 188.605 50.2477 188.57 50.2149C188.57 50.0786 188.553 49.9259 188.518 49.7541C188.518 49.6504 188.518 49.5495 188.518 49.4459C188.482 49.1378 188.465 48.8133 188.465 48.4724V24.9059H191.302C192.092 24.9059 192.771 25.1786 193.339 25.7267C193.907 26.2721 194.19 26.9402 194.19 27.7256V38.1753C196.151 36.8773 198.369 36.2283 200.843 36.2283C204.248 36.2283 207.153 37.4254 209.56 39.8142C211.812 42.0449 213.017 44.8292 213.188 48.1752ZM213.188 48.1752C213.015 44.7937 211.752 41.9604 209.396 39.6697C207.04 37.3818 204.195 36.2365 200.859 36.2365C198.383 36.2365 196.164 36.8691 194.207 38.1317V38.1835C196.167 36.8855 198.386 36.2365 200.859 36.2365C204.264 36.2365 207.169 37.4336 209.577 39.8224C211.812 42.0449 213.017 44.8292 213.188 48.1752ZM200.706 55.0908C202.63 55.0908 204.239 54.4499 205.527 53.171C206.818 51.8893 207.479 50.294 207.512 48.3824C207.408 46.5717 206.746 45.0609 205.527 43.8474C204.305 42.6367 202.784 41.9767 200.961 41.8758C199.033 41.9113 197.419 42.5603 196.112 43.8229C194.841 45.1209 194.204 46.7271 194.204 48.6387C194.272 50.4494 194.918 51.9602 196.137 53.1737C197.361 54.3817 198.882 55.0226 200.706 55.0908Z" fill="#4CAD50"/>
<path d="M77.6878 50.3785C79.3379 50.3785 80.4801 51.0957 81.1171 52.5301C81.7541 53.9645 81.5564 55.3471 80.5241 56.6806C78.0475 59.413 74.986 60.7792 71.3425 60.7792C67.9049 60.7792 64.9807 59.5848 62.5727 57.1932C60.1648 54.8044 58.9622 51.9002 58.9622 48.4833C58.9622 45.1018 60.1648 42.2167 62.5727 39.8251C64.978 37.4363 67.9021 36.2392 71.3425 36.2392C74.986 36.2392 78.0475 37.6054 80.5241 40.3378C81.5564 41.6358 81.7541 43.0102 81.1171 44.461C80.4801 45.9117 79.3379 46.6371 77.6878 46.6371C77.2759 45.2382 76.4824 44.0928 75.3155 43.2039C74.1458 42.3149 72.8224 41.8731 71.3425 41.8731C69.4864 41.8731 67.9131 42.5221 66.6226 43.8201C65.3322 45.1182 64.6897 46.6726 64.6897 48.4833C64.6897 50.3267 65.3349 51.8893 66.6226 53.1709C67.9131 54.4526 69.4864 55.0907 71.3425 55.0907C72.8197 55.0907 74.1458 54.6544 75.3155 53.7845C76.4824 52.9146 77.2732 51.7802 77.6878 50.3785Z" fill="#393939"/>
<path d="M108.739 47.5616C108.772 47.8697 108.791 48.1752 108.791 48.4833V60.7792H105.027C103.961 60.7792 103.324 60.1302 103.118 58.8322C101.125 60.1302 98.9064 60.7792 96.4655 60.7792C93.0279 60.7792 90.1038 59.5848 87.6958 57.1933C85.3922 54.8699 84.1895 51.9684 84.0852 48.4833C84.1895 45.0337 85.4004 42.1567 87.7205 39.8524C90.0406 37.5481 92.9373 36.3428 96.4106 36.2419C99.9169 36.3101 102.841 37.5072 105.18 39.8279C107.278 41.9086 108.464 44.4856 108.739 47.5616ZM96.5644 55.0908C98.3875 55.0226 99.9086 54.3817 101.13 53.171C102.35 51.9602 103.014 50.4467 103.116 48.636C103.08 46.7244 102.426 45.1182 101.155 43.8202C99.8482 42.5221 98.2832 41.8731 96.46 41.8731C94.6039 41.8731 93.0224 42.5221 91.7155 43.8202C90.4442 45.1182 89.8072 46.6726 89.8072 48.4833C89.8072 50.3267 90.4442 51.9002 91.7155 53.1955C93.0224 54.4608 94.6396 55.0908 96.5644 55.0908Z" fill="#393939"/>
<path d="M136.077 48.1752C136.077 48.2788 136.077 48.3797 136.077 48.4833C136.077 51.9002 134.872 54.8017 132.467 57.1933C130.059 59.5848 127.154 60.7792 123.749 60.7792C123.645 60.7792 123.543 60.7792 123.439 60.7792C123.37 60.7792 123.318 60.7792 123.285 60.7792C123.011 60.7792 122.736 60.7629 122.459 60.7274C122.423 60.7274 122.374 60.711 122.305 60.6756C122.269 60.6756 122.22 60.6756 122.151 60.6756C122.116 60.6756 122.066 60.6756 121.998 60.6756C121.962 60.6756 121.912 60.6592 121.844 60.6238C121.739 60.6238 121.638 60.6074 121.534 60.572C121.498 60.572 121.448 60.572 121.38 60.572C121.344 60.5392 121.295 60.5202 121.226 60.5202C121.089 60.4874 120.932 60.452 120.762 60.4165C120.693 60.3838 120.608 60.3647 120.504 60.3647C120.298 60.2966 120.108 60.2447 119.936 60.212C119.9 60.1793 119.867 60.1602 119.831 60.1602C119.763 60.1275 119.694 60.092 119.625 60.0566C119.59 60.0566 119.54 60.0566 119.471 60.0566C119.436 60.0239 119.386 59.9884 119.318 59.9529C119.282 59.9529 119.249 59.9529 119.213 59.9529C119.04 59.8848 118.887 59.8166 118.749 59.7484C118.681 59.7157 118.629 59.6803 118.596 59.6448C118.079 59.4048 117.563 59.1321 117.047 58.824C117.011 58.7913 116.978 58.7722 116.943 58.7722C116.907 58.7394 116.874 58.704 116.838 58.6685C116.77 58.6358 116.718 58.6004 116.685 58.5649C116.649 58.5649 116.616 58.5486 116.58 58.5131C116.512 58.4449 116.427 58.3768 116.322 58.3086C116.286 58.3086 116.254 58.2922 116.218 58.2568C116.182 58.224 116.149 58.1886 116.113 58.1531C116.009 58.085 115.908 58.0168 115.803 57.9486C115.768 57.9159 115.751 57.8804 115.751 57.845C115.477 57.6405 115.218 57.4196 114.977 57.1796C114.941 57.1469 114.925 57.1114 114.925 57.076C114.719 56.8715 114.513 56.6669 114.307 56.4624C114.307 56.4297 114.29 56.3943 114.255 56.3588C114.219 56.3261 114.186 56.2906 114.15 56.2552C114.115 56.2225 114.082 56.187 114.046 56.1515C113.909 55.9825 113.771 55.7943 113.634 55.5871C113.598 55.5189 113.549 55.4344 113.48 55.3307C113.412 55.2626 113.36 55.1944 113.327 55.1262C113.291 55.058 113.258 55.0062 113.222 54.9735C113.154 54.8371 113.085 54.7172 113.016 54.6163C112.981 54.5481 112.948 54.4963 112.912 54.4636C112.739 54.1227 112.569 53.7627 112.396 53.3864C112.36 53.3537 112.344 53.3182 112.344 53.2828C112.308 53.2146 112.291 53.1628 112.291 53.1301C112.256 53.0973 112.239 53.0455 112.239 52.9773C112.204 52.9092 112.171 52.8246 112.135 52.721H112.083C112.047 52.5847 112.014 52.4483 111.978 52.312C111.91 52.1075 111.841 51.9029 111.773 51.6984C111.773 51.5948 111.756 51.4939 111.72 51.3903C111.685 51.2539 111.652 51.1012 111.616 50.9294C111.58 50.8612 111.564 50.7767 111.564 50.6731C111.528 50.6049 111.512 50.5531 111.512 50.5203C111.512 50.4522 111.512 50.4004 111.512 50.3676C111.512 50.2995 111.495 50.2477 111.46 50.2149C111.46 50.0786 111.443 49.9259 111.407 49.7541C111.407 49.6504 111.407 49.5495 111.407 49.4459C111.372 49.1378 111.355 48.8133 111.355 48.4724V24.9059H114.192C114.982 24.9059 115.66 25.1786 116.229 25.7267C116.797 26.2721 117.08 26.9402 117.08 27.7256V38.1753C119.04 36.8773 121.259 36.2283 123.733 36.2283C127.137 36.2283 130.042 37.4254 132.45 39.8142C134.699 42.0449 135.904 44.8292 136.077 48.1752ZM136.077 48.1752C135.904 44.7937 134.641 41.9604 132.286 39.6697C129.93 37.3818 127.085 36.2365 123.749 36.2365C121.273 36.2365 119.054 36.8691 117.096 38.1317V38.1835C119.057 36.8855 121.275 36.2365 123.749 36.2365C127.154 36.2365 130.059 37.4336 132.467 39.8224C134.699 42.0449 135.904 44.8292 136.077 48.1752ZM123.593 55.0908C125.517 55.0908 127.126 54.4499 128.414 53.171C129.705 51.8893 130.366 50.294 130.399 48.3824C130.295 46.5717 129.633 45.0609 128.414 43.8474C127.192 42.6367 125.671 41.9767 123.848 41.8758C121.921 41.9113 120.306 42.5603 118.999 43.8229C117.728 45.1209 117.091 46.7271 117.091 48.6387C117.16 50.4494 117.805 51.9602 119.024 53.1737C120.249 54.3817 121.77 55.0226 123.593 55.0908Z" fill="#393939"/>
<path d="M27.1861 40.2914C34.1615 40.2914 39.8163 34.6753 39.8163 27.7474C39.8163 20.8195 34.1615 15.2033 27.1861 15.2033C20.2106 15.2033 14.5559 20.8195 14.5559 27.7474C14.5559 34.6753 20.2106 40.2914 27.1861 40.2914Z" stroke="#393939" stroke-miterlimit="10" stroke-dasharray="3.11 3.11"/>
</svg>
