<?xml version="1.0" encoding="utf-8"?>
<!-- Generator: Adobe Illustrator 26.0.1, SVG Export Plug-In . SVG Version: 6.00 Build 0)  -->
<svg version="1.1" id="Layer_1" xmlns="http://www.w3.org/2000/svg" xmlns:xlink="http://www.w3.org/1999/xlink" x="0px" y="0px"
	 viewBox="0 0 214 63" style="enable-background:new 0 0 214 63;" xml:space="preserve">
<style type="text/css">
	.st0{fill:#4CAD50;}
	.st1{fill:#F2F2F2;}
	.st2{fill:none;stroke:#F2F2F2;stroke-width:0.75;stroke-miterlimit:10;stroke-dasharray:3.11,3.11;}
</style>
<path class="st0" d="M32.5,33.1c3-2.9,3-7.7,0-10.6c-3-2.9-7.7-2.9-10.7,0c-3,2.9-3,7.7,0,10.6C24.8,36,29.6,36,32.5,33.1z"/>
<path class="st0" d="M8,46.8l13.6,13.5c3.1,3.1,8.1,3.1,11.2,0l13.6-13.5C57,36.3,57,19.2,46.4,8.7C35.8-1.9,18.6-1.9,8,8.7
	C-2.7,19.2-2.7,36.3,8,46.8z M39.9,15.1c7,7,7,18.3,0,25.2c-7,7-18.4,7-25.4,0c-7-7-7-18.3,0-25.2C21.5,8.2,32.9,8.2,39.9,15.1z"/>
<path class="st0" d="M136.1,15.7c-6.3,0-11.4,5.1-11.4,11.3c0,6.3,5.1,11.3,11.4,11.3c6.3,0,11.4-5.1,11.4-11.3
	C147.5,20.8,142.4,15.7,136.1,15.7z M136.1,31.9c-2.7,0-4.9-2.2-4.9-4.8c0-2.7,2.2-4.8,4.9-4.8c2.7,0,4.9,2.2,4.9,4.8
	C141,29.7,138.8,31.9,136.1,31.9z"/>
<path class="st0" d="M154.8,50.4c1.6,0,2.8,0.7,3.4,2.2c0.6,1.4,0.4,2.8-0.6,4.2c-2.5,2.7-5.5,4.1-9.2,4.1c-3.4,0-6.4-1.2-8.8-3.6
	c-2.4-2.4-3.6-5.3-3.6-8.7c0-3.4,1.2-6.3,3.6-8.7c2.4-2.4,5.3-3.6,8.8-3.6c3.6,0,6.7,1.4,9.2,4.1c1,1.3,1.2,2.7,0.6,4.1
	c-0.6,1.5-1.8,2.2-3.4,2.2c-0.4-1.4-1.2-2.5-2.4-3.4c-1.2-0.9-2.5-1.3-4-1.3c-1.9,0-3.4,0.6-4.7,1.9c-1.3,1.3-1.9,2.9-1.9,4.7
	c0,1.8,0.6,3.4,1.9,4.7c1.3,1.3,2.9,1.9,4.7,1.9c1.5,0,2.8-0.4,4-1.3C153.6,52.9,154.4,51.8,154.8,50.4z"/>
<path class="st0" d="M185.9,47.6c0,0.3,0.1,0.6,0.1,0.9v12.3h-3.8c-1.1,0-1.7-0.6-1.9-1.9c-2,1.3-4.2,1.9-6.7,1.9
	c-3.4,0-6.4-1.2-8.8-3.6c-2.3-2.3-3.5-5.2-3.6-8.7c0.1-3.4,1.3-6.3,3.6-8.6c2.3-2.3,5.2-3.5,8.7-3.6c3.5,0.1,6.4,1.3,8.8,3.6
	C184.4,41.9,185.6,44.5,185.9,47.6z M173.7,55.1c1.8-0.1,3.3-0.7,4.6-1.9c1.2-1.2,1.9-2.7,2-4.5c0-1.9-0.7-3.5-2-4.8
	c-1.3-1.3-2.9-1.9-4.7-1.9c-1.9,0-3.4,0.6-4.7,1.9c-1.3,1.3-1.9,2.9-1.9,4.7c0,1.8,0.6,3.4,1.9,4.7
	C170.1,54.5,171.8,55.1,173.7,55.1z"/>
<path class="st0" d="M213.2,48.2c0,0.1,0,0.2,0,0.3c0,3.4-1.2,6.3-3.6,8.7c-2.4,2.4-5.3,3.6-8.7,3.6c-0.1,0-0.2,0-0.3,0
	c-0.1,0-0.1,0-0.2,0c-0.3,0-0.5,0-0.8-0.1c0,0-0.1,0-0.2-0.1c0,0-0.1,0-0.2,0c0,0-0.1,0-0.2,0c0,0-0.1,0-0.2-0.1
	c-0.1,0-0.2,0-0.3-0.1c0,0-0.1,0-0.2,0c0,0-0.1-0.1-0.2-0.1c-0.1,0-0.3-0.1-0.5-0.1c-0.1,0-0.2-0.1-0.3-0.1
	c-0.2-0.1-0.4-0.1-0.6-0.2c0,0-0.1-0.1-0.1-0.1c-0.1,0-0.1-0.1-0.2-0.1c0,0-0.1,0-0.2,0c0,0-0.1-0.1-0.2-0.1c0,0-0.1,0-0.1,0
	c-0.2-0.1-0.3-0.1-0.5-0.2c-0.1,0-0.1-0.1-0.2-0.1c-0.5-0.2-1-0.5-1.5-0.8c0,0-0.1-0.1-0.1-0.1c0,0-0.1-0.1-0.1-0.1
	c-0.1,0-0.1-0.1-0.2-0.1c0,0-0.1,0-0.1-0.1c-0.1-0.1-0.2-0.1-0.3-0.2c0,0-0.1,0-0.1-0.1c0,0-0.1-0.1-0.1-0.1
	c-0.1-0.1-0.2-0.1-0.3-0.2c0,0-0.1-0.1-0.1-0.1c-0.3-0.2-0.5-0.4-0.8-0.7c0,0-0.1-0.1-0.1-0.1c-0.2-0.2-0.4-0.4-0.6-0.6
	c0,0,0-0.1-0.1-0.1c0,0-0.1-0.1-0.1-0.1c0,0-0.1-0.1-0.1-0.1c-0.1-0.2-0.3-0.4-0.4-0.6c0-0.1-0.1-0.2-0.2-0.3
	c-0.1-0.1-0.1-0.1-0.2-0.2c0-0.1-0.1-0.1-0.1-0.2c-0.1-0.1-0.1-0.3-0.2-0.4c0-0.1-0.1-0.1-0.1-0.2c-0.2-0.3-0.3-0.7-0.5-1.1
	c0,0-0.1-0.1-0.1-0.1c0-0.1-0.1-0.1-0.1-0.2c0,0-0.1-0.1-0.1-0.2c0-0.1-0.1-0.2-0.1-0.3h-0.1c0-0.1-0.1-0.3-0.1-0.4
	c-0.1-0.2-0.1-0.4-0.2-0.6c0-0.1,0-0.2-0.1-0.3c0-0.1-0.1-0.3-0.1-0.5c0-0.1-0.1-0.2-0.1-0.3c0-0.1-0.1-0.1-0.1-0.2
	c0-0.1,0-0.1,0-0.2c0-0.1,0-0.1-0.1-0.2c0-0.1,0-0.3-0.1-0.5c0-0.1,0-0.2,0-0.3c0-0.3-0.1-0.6-0.1-1V24.9h2.8c0.8,0,1.5,0.3,2,0.8
	c0.6,0.5,0.9,1.2,0.9,2v10.4c2-1.3,4.2-1.9,6.7-1.9c3.4,0,6.3,1.2,8.7,3.6C211.8,42,213,44.8,213.2,48.2z M213.2,48.2
	c-0.2-3.4-1.4-6.2-3.8-8.5c-2.4-2.3-5.2-3.4-8.5-3.4c-2.5,0-4.7,0.6-6.7,1.9v0.1c2-1.3,4.2-1.9,6.7-1.9c3.4,0,6.3,1.2,8.7,3.6
	C211.8,42,213,44.8,213.2,48.2z M200.7,55.1c1.9,0,3.5-0.6,4.8-1.9c1.3-1.3,2-2.9,2-4.8c-0.1-1.8-0.8-3.3-2-4.5
	c-1.2-1.2-2.7-1.9-4.6-2c-1.9,0-3.5,0.7-4.8,1.9c-1.3,1.3-1.9,2.9-1.9,4.8c0.1,1.8,0.7,3.3,1.9,4.5C197.4,54.4,198.9,55,200.7,55.1z
	"/>
<path class="st1" d="M77.7,50.4c1.7,0,2.8,0.7,3.4,2.2c0.6,1.4,0.4,2.8-0.6,4.2c-2.5,2.7-5.5,4.1-9.2,4.1c-3.4,0-6.4-1.2-8.8-3.6
	c-2.4-2.4-3.6-5.3-3.6-8.7c0-3.4,1.2-6.3,3.6-8.7c2.4-2.4,5.3-3.6,8.8-3.6c3.6,0,6.7,1.4,9.2,4.1c1,1.3,1.2,2.7,0.6,4.1
	c-0.6,1.5-1.8,2.2-3.4,2.2c-0.4-1.4-1.2-2.5-2.4-3.4c-1.2-0.9-2.5-1.3-4-1.3c-1.9,0-3.4,0.6-4.7,1.9c-1.3,1.3-1.9,2.9-1.9,4.7
	c0,1.8,0.6,3.4,1.9,4.7c1.3,1.3,2.9,1.9,4.7,1.9c1.5,0,2.8-0.4,4-1.3C76.5,52.9,77.3,51.8,77.7,50.4z"/>
<path class="st1" d="M108.7,47.6c0,0.3,0.1,0.6,0.1,0.9v12.3H105c-1.1,0-1.7-0.6-1.9-1.9c-2,1.3-4.2,1.9-6.7,1.9
	c-3.4,0-6.4-1.2-8.8-3.6c-2.3-2.3-3.5-5.2-3.6-8.7c0.1-3.4,1.3-6.3,3.6-8.6c2.3-2.3,5.2-3.5,8.7-3.6c3.5,0.1,6.4,1.3,8.8,3.6
	C107.3,41.9,108.5,44.5,108.7,47.6z M96.6,55.1c1.8-0.1,3.3-0.7,4.6-1.9c1.2-1.2,1.9-2.7,2-4.5c0-1.9-0.7-3.5-2-4.8
	c-1.3-1.3-2.9-1.9-4.7-1.9c-1.9,0-3.4,0.6-4.7,1.9c-1.3,1.3-1.9,2.9-1.9,4.7c0,1.8,0.6,3.4,1.9,4.7C93,54.5,94.6,55.1,96.6,55.1z"/>
<path class="st1" d="M136.1,48.2c0,0.1,0,0.2,0,0.3c0,3.4-1.2,6.3-3.6,8.7c-2.4,2.4-5.3,3.6-8.7,3.6c-0.1,0-0.2,0-0.3,0
	c-0.1,0-0.1,0-0.2,0c-0.3,0-0.5,0-0.8-0.1c0,0-0.1,0-0.2-0.1c0,0-0.1,0-0.2,0c0,0-0.1,0-0.2,0c0,0-0.1,0-0.2-0.1
	c-0.1,0-0.2,0-0.3-0.1c0,0-0.1,0-0.2,0c0,0-0.1-0.1-0.2-0.1c-0.1,0-0.3-0.1-0.5-0.1c-0.1,0-0.2-0.1-0.3-0.1
	c-0.2-0.1-0.4-0.1-0.6-0.2c0,0-0.1-0.1-0.1-0.1c-0.1,0-0.1-0.1-0.2-0.1c0,0-0.1,0-0.2,0c0,0-0.1-0.1-0.2-0.1c0,0-0.1,0-0.1,0
	c-0.2-0.1-0.3-0.1-0.5-0.2c-0.1,0-0.1-0.1-0.2-0.1c-0.5-0.2-1-0.5-1.5-0.8c0,0-0.1-0.1-0.1-0.1c0,0-0.1-0.1-0.1-0.1
	c-0.1,0-0.1-0.1-0.2-0.1c0,0-0.1,0-0.1-0.1c-0.1-0.1-0.2-0.1-0.3-0.2c0,0-0.1,0-0.1-0.1c0,0-0.1-0.1-0.1-0.1
	c-0.1-0.1-0.2-0.1-0.3-0.2c0,0-0.1-0.1-0.1-0.1c-0.3-0.2-0.5-0.4-0.8-0.7c0,0-0.1-0.1-0.1-0.1c-0.2-0.2-0.4-0.4-0.6-0.6
	c0,0,0-0.1-0.1-0.1c0,0-0.1-0.1-0.1-0.1c0,0-0.1-0.1-0.1-0.1c-0.1-0.2-0.3-0.4-0.4-0.6c0-0.1-0.1-0.2-0.2-0.3
	c-0.1-0.1-0.1-0.1-0.2-0.2c0-0.1-0.1-0.1-0.1-0.2c-0.1-0.1-0.1-0.3-0.2-0.4c0-0.1-0.1-0.1-0.1-0.2c-0.2-0.3-0.3-0.7-0.5-1.1
	c0,0-0.1-0.1-0.1-0.1c0-0.1-0.1-0.1-0.1-0.2c0,0-0.1-0.1-0.1-0.2c0-0.1-0.1-0.2-0.1-0.3h-0.1c0-0.1-0.1-0.3-0.1-0.4
	c-0.1-0.2-0.1-0.4-0.2-0.6c0-0.1,0-0.2-0.1-0.3c0-0.1-0.1-0.3-0.1-0.5c0-0.1-0.1-0.2-0.1-0.3c0-0.1-0.1-0.1-0.1-0.2
	c0-0.1,0-0.1,0-0.2c0-0.1,0-0.1-0.1-0.2c0-0.1,0-0.3-0.1-0.5c0-0.1,0-0.2,0-0.3c0-0.3-0.1-0.6-0.1-1V24.9h2.8c0.8,0,1.5,0.3,2,0.8
	c0.6,0.5,0.9,1.2,0.9,2v10.4c2-1.3,4.2-1.9,6.7-1.9c3.4,0,6.3,1.2,8.7,3.6C134.7,42,135.9,44.8,136.1,48.2z M136.1,48.2
	c-0.2-3.4-1.4-6.2-3.8-8.5c-2.4-2.3-5.2-3.4-8.5-3.4c-2.5,0-4.7,0.6-6.7,1.9v0.1c2-1.3,4.2-1.9,6.7-1.9c3.4,0,6.3,1.2,8.7,3.6
	C134.7,42,135.9,44.8,136.1,48.2z M123.6,55.1c1.9,0,3.5-0.6,4.8-1.9c1.3-1.3,2-2.9,2-4.8c-0.1-1.8-0.8-3.3-2-4.5
	c-1.2-1.2-2.7-1.9-4.6-2c-1.9,0-3.5,0.7-4.8,1.9c-1.3,1.3-1.9,2.9-1.9,4.8c0.1,1.8,0.7,3.3,1.9,4.5C120.2,54.4,121.8,55,123.6,55.1z
	"/>
<path class="st2" d="M27.2,40.3c7,0,12.6-5.6,12.6-12.5s-5.7-12.5-12.6-12.5c-7,0-12.6,5.6-12.6,12.5S20.2,40.3,27.2,40.3z"/>
</svg>
