<?xml version="1.0" encoding="utf-8"?>
<!-- Generator: Adobe Illustrator 26.0.1, SVG Export Plug-In . SVG Version: 6.00 Build 0)  -->
<svg version="1.1" id="Layer_1" xmlns="http://www.w3.org/2000/svg" xmlns:xlink="http://www.w3.org/1999/xlink" x="0px" y="0px"
	 viewBox="0 0 348 160" style="enable-background:new 0 0 348 160;" xml:space="preserve">
<style type="text/css">
	.st0{fill:#4CAD50;}
	.st1{fill:#F2F2F2;}
	.st2{fill:none;stroke:#FFFFFF;stroke-width:1.7986;stroke-miterlimit:10;stroke-dasharray:11.11,11.11;}
</style>
<path class="st0" d="M88.1,75.5c3.5-3.4,3.5-9,0-12.5c-3.5-3.4-9.1-3.4-12.6,0c-3.5,3.4-3.5,9,0,12.5C79,79,84.7,79,88.1,75.5z"/>
<path class="st0" d="M59.3,91.7l16,15.9c3.6,3.6,9.5,3.6,13.2,0l16-15.9c12.5-12.4,12.5-32.4,0-44.8c-12.5-12.4-32.7-12.4-45.1,0
	C46.8,59.3,46.8,79.3,59.3,91.7z M96.8,54.5c8.2,8.2,8.2,21.4,0,29.6c-8.2,8.2-21.6,8.2-29.8,0c-8.2-8.2-8.2-21.4,0-29.6
	C75.2,46.3,88.5,46.3,96.8,54.5z"/>
<path class="st0" d="M209.6,55.2c-7.4,0-13.4,5.9-13.4,13.3c0,7.3,6,13.3,13.4,13.3c7.4,0,13.4-5.9,13.4-13.3
	C223,61.2,217,55.2,209.6,55.2z M209.6,74.2c-3.2,0-5.7-2.5-5.7-5.7c0-3.1,2.6-5.7,5.7-5.7c3.2,0,5.7,2.5,5.7,5.7
	C215.4,71.6,212.8,74.2,209.6,74.2z"/>
<path class="st0" d="M231.6,95.9c1.9,0,3.3,0.8,4,2.5c0.7,1.7,0.5,3.3-0.7,4.9c-2.9,3.2-6.5,4.8-10.8,4.8c-4,0-7.5-1.4-10.3-4.2
	c-2.8-2.8-4.2-6.2-4.2-10.2c0-4,1.4-7.4,4.2-10.2c2.8-2.8,6.3-4.2,10.3-4.2c4.3,0,7.9,1.6,10.8,4.8c1.2,1.5,1.4,3.1,0.7,4.8
	c-0.7,1.7-2.1,2.6-4,2.6c-0.5-1.6-1.4-3-2.8-4c-1.4-1-2.9-1.6-4.7-1.6c-2.2,0-4,0.8-5.5,2.3c-1.5,1.5-2.3,3.3-2.3,5.5
	c0,2.2,0.8,4,2.3,5.5c1.5,1.5,3.4,2.3,5.5,2.3c1.7,0,3.3-0.5,4.7-1.5C230.2,98.8,231.1,97.5,231.6,95.9z"/>
<path class="st0" d="M268.1,92.6c0,0.4,0.1,0.7,0.1,1.1v14.4h-4.4c-1.2,0-2-0.8-2.2-2.3c-2.3,1.5-4.9,2.3-7.8,2.3
	c-4,0-7.5-1.4-10.3-4.2c-2.7-2.7-4.1-6.1-4.2-10.2c0.1-4,1.5-7.4,4.3-10.1c2.7-2.7,6.1-4.1,10.2-4.2c4.1,0.1,7.5,1.5,10.3,4.2
	C266.3,85.9,267.7,88.9,268.1,92.6z M253.8,101.4c2.1-0.1,3.9-0.8,5.4-2.3c1.4-1.4,2.2-3.2,2.3-5.3c0-2.2-0.8-4.1-2.3-5.7
	c-1.5-1.5-3.4-2.3-5.5-2.3c-2.2,0-4,0.8-5.6,2.3c-1.5,1.5-2.2,3.3-2.2,5.5c0,2.2,0.7,4,2.2,5.5C249.6,100.7,251.5,101.4,253.8,101.4
	z"/>
<path class="st0" d="M300.1,93.3c0,0.1,0,0.2,0,0.4c0,4-1.4,7.4-4.2,10.2c-2.8,2.8-6.2,4.2-10.2,4.2c-0.1,0-0.2,0-0.4,0
	c-0.1,0-0.1,0-0.2,0c-0.3,0-0.6,0-1-0.1c0,0-0.1,0-0.2-0.1c0,0-0.1,0-0.2,0c0,0-0.1,0-0.2,0c0,0-0.1,0-0.2-0.1c-0.1,0-0.2,0-0.4-0.1
	c0,0-0.1,0-0.2,0c0,0-0.1-0.1-0.2-0.1c-0.2,0-0.3-0.1-0.5-0.1c-0.1,0-0.2-0.1-0.3-0.1c-0.2-0.1-0.5-0.1-0.7-0.2c0,0-0.1-0.1-0.1-0.1
	c-0.1,0-0.2-0.1-0.2-0.1c0,0-0.1,0-0.2,0c0,0-0.1-0.1-0.2-0.1c0,0-0.1,0-0.1,0c-0.2-0.1-0.4-0.2-0.5-0.2c-0.1,0-0.1-0.1-0.2-0.1
	c-0.6-0.3-1.2-0.6-1.8-1c0,0-0.1-0.1-0.1-0.1c0,0-0.1-0.1-0.1-0.1c-0.1,0-0.1-0.1-0.2-0.1c0,0-0.1,0-0.1-0.1
	c-0.1-0.1-0.2-0.2-0.3-0.2c0,0-0.1,0-0.1-0.1c0,0-0.1-0.1-0.1-0.1c-0.1-0.1-0.2-0.2-0.4-0.2c0,0-0.1-0.1-0.1-0.1
	c-0.3-0.2-0.6-0.5-0.9-0.8c0,0-0.1-0.1-0.1-0.1c-0.2-0.2-0.5-0.5-0.7-0.7c0,0,0-0.1-0.1-0.1c0,0-0.1-0.1-0.1-0.1
	c0,0-0.1-0.1-0.1-0.1c-0.2-0.2-0.3-0.4-0.5-0.7c0-0.1-0.1-0.2-0.2-0.3c-0.1-0.1-0.1-0.2-0.2-0.2c0-0.1-0.1-0.1-0.1-0.2
	c-0.1-0.2-0.2-0.3-0.2-0.4c0-0.1-0.1-0.1-0.1-0.2c-0.2-0.4-0.4-0.8-0.6-1.3c0,0-0.1-0.1-0.1-0.1c0-0.1-0.1-0.1-0.1-0.2
	c0,0-0.1-0.1-0.1-0.2c0-0.1-0.1-0.2-0.1-0.3H272c0-0.2-0.1-0.3-0.1-0.5c-0.1-0.2-0.2-0.5-0.2-0.7c0-0.1,0-0.2-0.1-0.4
	c0-0.2-0.1-0.3-0.1-0.5c0-0.1-0.1-0.2-0.1-0.3c0-0.1-0.1-0.1-0.1-0.2c0-0.1,0-0.1,0-0.2c0-0.1,0-0.1-0.1-0.2c0-0.2,0-0.3-0.1-0.5
	c0-0.1,0-0.2,0-0.4c0-0.4-0.1-0.7-0.1-1.1V66h3.3c0.9,0,1.7,0.3,2.4,1c0.7,0.6,1,1.4,1,2.3v12.3c2.3-1.5,4.9-2.3,7.8-2.3
	c4,0,7.4,1.4,10.2,4.2C298.5,86.1,299.9,89.4,300.1,93.3z M300.1,93.3c-0.2-4-1.7-7.3-4.4-10c-2.8-2.7-6.1-4-10-4
	c-2.9,0-5.5,0.7-7.8,2.2v0.1c2.3-1.5,4.9-2.3,7.8-2.3c4,0,7.4,1.4,10.2,4.2C298.5,86.1,299.9,89.4,300.1,93.3z M285.5,101.4
	c2.3,0,4.1-0.8,5.7-2.3c1.5-1.5,2.3-3.4,2.3-5.6c-0.1-2.1-0.9-3.9-2.3-5.3c-1.4-1.4-3.2-2.2-5.4-2.3c-2.3,0-4.2,0.8-5.7,2.3
	c-1.5,1.5-2.2,3.4-2.2,5.7c0.1,2.1,0.8,3.9,2.3,5.3C281.6,100.6,283.3,101.3,285.5,101.4z"/>
<path class="st1" d="M141.1,95.9c1.9,0,3.3,0.8,4,2.5c0.7,1.7,0.5,3.3-0.7,4.9c-2.9,3.2-6.5,4.8-10.8,4.8c-4,0-7.5-1.4-10.3-4.2
	c-2.8-2.8-4.2-6.2-4.2-10.2c0-4,1.4-7.4,4.2-10.2c2.8-2.8,6.3-4.2,10.3-4.2c4.3,0,7.9,1.6,10.8,4.8c1.2,1.5,1.4,3.1,0.7,4.8
	c-0.7,1.7-2.1,2.6-4,2.6c-0.5-1.6-1.4-3-2.8-4c-1.4-1-2.9-1.6-4.7-1.6c-2.2,0-4,0.8-5.5,2.3c-1.5,1.5-2.3,3.3-2.3,5.5
	c0,2.2,0.8,4,2.3,5.5c1.5,1.5,3.4,2.3,5.5,2.3c1.7,0,3.3-0.5,4.7-1.5C139.7,98.8,140.6,97.5,141.1,95.9z"/>
<path class="st1" d="M177.6,92.6c0,0.4,0.1,0.7,0.1,1.1v14.4h-4.4c-1.2,0-2-0.8-2.2-2.3c-2.3,1.5-4.9,2.3-7.8,2.3
	c-4,0-7.5-1.4-10.3-4.2c-2.7-2.7-4.1-6.1-4.2-10.2c0.1-4,1.5-7.4,4.3-10.1c2.7-2.7,6.1-4.1,10.2-4.2c4.1,0.1,7.5,1.5,10.3,4.2
	C175.8,85.9,177.2,88.9,177.6,92.6z M163.3,101.4c2.1-0.1,3.9-0.8,5.4-2.3c1.4-1.4,2.2-3.2,2.3-5.3c0-2.2-0.8-4.1-2.3-5.7
	c-1.5-1.5-3.4-2.3-5.5-2.3c-2.2,0-4,0.8-5.6,2.3c-1.5,1.5-2.2,3.3-2.2,5.5c0,2.2,0.7,4,2.2,5.5C159.1,100.7,161,101.4,163.3,101.4z"
	/>
<path class="st1" d="M209.6,93.3c0,0.1,0,0.2,0,0.4c0,4-1.4,7.4-4.2,10.2c-2.8,2.8-6.2,4.2-10.2,4.2c-0.1,0-0.2,0-0.4,0
	c-0.1,0-0.1,0-0.2,0c-0.3,0-0.6,0-1-0.1c0,0-0.1,0-0.2-0.1c0,0-0.1,0-0.2,0c0,0-0.1,0-0.2,0c0,0-0.1,0-0.2-0.1c-0.1,0-0.2,0-0.4-0.1
	c0,0-0.1,0-0.2,0c0,0-0.1-0.1-0.2-0.1c-0.2,0-0.3-0.1-0.5-0.1c-0.1,0-0.2-0.1-0.3-0.1c-0.2-0.1-0.5-0.1-0.7-0.2c0,0-0.1-0.1-0.1-0.1
	c-0.1,0-0.2-0.1-0.2-0.1c0,0-0.1,0-0.2,0c0,0-0.1-0.1-0.2-0.1c0,0-0.1,0-0.1,0c-0.2-0.1-0.4-0.2-0.5-0.2c-0.1,0-0.1-0.1-0.2-0.1
	c-0.6-0.3-1.2-0.6-1.8-1c0,0-0.1-0.1-0.1-0.1c0,0-0.1-0.1-0.1-0.1c-0.1,0-0.1-0.1-0.2-0.1c0,0-0.1,0-0.1-0.1
	c-0.1-0.1-0.2-0.2-0.3-0.2c0,0-0.1,0-0.1-0.1c0,0-0.1-0.1-0.1-0.1c-0.1-0.1-0.2-0.2-0.4-0.2c0,0-0.1-0.1-0.1-0.1
	c-0.3-0.2-0.6-0.5-0.9-0.8c0,0-0.1-0.1-0.1-0.1c-0.2-0.2-0.5-0.5-0.7-0.7c0,0,0-0.1-0.1-0.1c0,0-0.1-0.1-0.1-0.1
	c0,0-0.1-0.1-0.1-0.1c-0.2-0.2-0.3-0.4-0.5-0.7c0-0.1-0.1-0.2-0.2-0.3c-0.1-0.1-0.1-0.2-0.2-0.2c0-0.1-0.1-0.1-0.1-0.2
	c-0.1-0.2-0.2-0.3-0.2-0.4c0-0.1-0.1-0.1-0.1-0.2c-0.2-0.4-0.4-0.8-0.6-1.3c0,0-0.1-0.1-0.1-0.1c0-0.1-0.1-0.1-0.1-0.2
	c0,0-0.1-0.1-0.1-0.2c0-0.1-0.1-0.2-0.1-0.3h-0.1c0-0.2-0.1-0.3-0.1-0.5c-0.1-0.2-0.2-0.5-0.2-0.7c0-0.1,0-0.2-0.1-0.4
	c0-0.2-0.1-0.3-0.1-0.5c0-0.1-0.1-0.2-0.1-0.3c0-0.1-0.1-0.1-0.1-0.2c0-0.1,0-0.1,0-0.2c0-0.1,0-0.1-0.1-0.2c0-0.2,0-0.3-0.1-0.5
	c0-0.1,0-0.2,0-0.4c0-0.4-0.1-0.7-0.1-1.1V66h3.3c0.9,0,1.7,0.3,2.4,1c0.7,0.6,1,1.4,1,2.3v12.3c2.3-1.5,4.9-2.3,7.8-2.3
	c4,0,7.4,1.4,10.2,4.2C208,86.1,209.4,89.4,209.6,93.3z M209.6,93.3c-0.2-4-1.7-7.3-4.4-10c-2.8-2.7-6.1-4-10-4
	c-2.9,0-5.5,0.7-7.8,2.2v0.1c2.3-1.5,4.9-2.3,7.8-2.3c4,0,7.4,1.4,10.2,4.2C208,86.1,209.4,89.4,209.6,93.3z M195,101.4
	c2.3,0,4.1-0.8,5.7-2.3c1.5-1.5,2.3-3.4,2.3-5.6c-0.1-2.1-0.9-3.9-2.3-5.3c-1.4-1.4-3.2-2.2-5.4-2.3c-2.3,0-4.2,0.8-5.7,2.3
	c-1.5,1.5-2.2,3.4-2.2,5.7c0.1,2.1,0.8,3.9,2.3,5.3C191.1,100.6,192.9,101.3,195,101.4z"/>
<path class="st2" d="M81.9,84c8.2,0,14.8-6.6,14.8-14.7c0-8.1-6.6-14.7-14.8-14.7S67,61.2,67,69.3C67,77.4,73.7,84,81.9,84z"/>
</svg>
